<svg width="244" height="90" viewBox="0 0 244 90" fill="none" xmlns="http://www.w3.org/2000/svg">
<g filter="url(#antiDistort)">
<path fill-rule="evenodd" clip-rule="evenodd" d="M24 10H10V24V38H24V24H38V38H52V24V10H38H24ZM10 52H24H38V66H24V80H10V66V52ZM38 66H52V52H66V66V80H52H38V66ZM94 52H80V66V80H94H108V66V52H94ZM122 52H136V66H150V52H164V66V80H150H136H122V66V52ZM136 10H122V24H136V38H150V24H164V10H150H136ZM66 10H80V24H94H108V38H94H80H66V24V10ZM234 52H220V66H206V52H192H178V66V80H192V66H206V80H220H234V66V52Z" fill="#E8705B"/></g>
<filter id="antiDistort" x="-50%" y="-50%" width="200%" height="200%">
<!-- <feTurbulence baseFrequency="0.015" type="fractalNoise"><animate attributeName="baseFrequency" begin="0s" dur="0.15s" values="0.0812;0.0353;0.0041;0.0424;0.0010;0.0934" repeatCount="indefinite"/></feTurbulence><feDisplacementMap in="SourceGraphic" scale="5"></feDisplacementMap> -->
<!-- <feTurbulence baseFrequency="0.035" type="fractalNoise"><animate attributeName="baseFrequency" begin="0s" dur="0.15s" values="0.0812;0.0353;0.0041;0.0424;0.0010;0.0934" repeatCount="indefinite"/></feTurbulence><feDisplacementMap in="SourceGraphic" scale="9"></feDisplacementMap> -->
<feTurbulence baseFrequency="0.95" type="fractalNoise"></feTurbulence><feDisplacementMap in="SourceGraphic" scale="'+feDisplacementMap+'"><animate attributeName="scale" begin="0s" dur="0.5s" values="36.72;58.84;36.90;14.99;13.26;47.30;58.24;21.58;46.51;40.17;35.83;36.08;42.74;32.16;46.57;33.67;17.31;52.09;30.80;40.37;43.99;36.21;16.18;20.04;15.72;50.92;41.35;26.12;31.38;30.41;59.51;10.51;45.48;19.59;58.88;33.92;26.88;13.50;31.85;43.88;33.05;22.82;56.26;27.90;51.95;26.47;27.13;32.41;18.12;52.98;50.04;17.62;27.43;52.81;21.61;15.11;25.89;27.39;39.35;51.29" repeatCount="indefinite"/></feDisplacementMap>
</filter>
</svg>
