<svg width="239" height="104" viewBox="0 0 239 104" fill="none" xmlns="http://www.w3.org/2000/svg">
<path fill-rule="evenodd" clip-rule="evenodd" d="M29.8144 0H14.9072V0.000716919H2.03274e-05V14.9076H0V29.8148H14.9072V14.9079H14.9072V14.9072H29.8144V0ZM0 44.7221H14.9072V59.6289V59.6293V74.5361H0V59.6293V59.6289V44.7221ZM74.5361 44.7221H89.4434H104.351V59.6289V59.6293V74.5361H89.4434H74.5361V59.6293V59.6289V44.7221ZM134.165 44.7221H119.258V59.6289V59.6293V74.5361H134.165H134.165H149.072V59.6289H134.165V44.7221ZM163.979 74.5361H149.072V59.6293V59.6289V44.7221H163.979V59.6289V59.6293V74.5361ZM29.8144 44.7221H14.9072V59.6293H29.8144V44.7221ZM29.8145 59.6289H44.7217V74.5361H29.8145V59.6289ZM44.7217 74.5361H59.6289V59.6293V59.6289V44.7221H44.7217V59.6289V59.6293V74.5361ZM29.8145 14.9076H44.7217V29.8148H29.8145V14.9076ZM44.7217 0H29.8145V14.9072H44.7217V0ZM134.165 0H119.258V14.9072H134.165H134.165H149.072V0H134.165H134.165ZM163.979 0H149.072V14.9072H163.979V0ZM134.165 14.9076H149.072V29.8148H134.165V14.9076ZM74.5361 0H59.6289V14.9072H74.5361V0ZM74.5361 14.9076H89.4434H104.351V29.8148H89.4434H74.5361H59.6289V14.9076H74.5361ZM193.794 44.7221H178.887V59.6289V59.6293V74.5361H193.794V59.6293H208.701L208.701 74.5361H223.608H238.515V59.6293V59.6289V44.7221H223.608L223.608 59.6289H208.701L208.701 44.7221H193.794ZM2.29065 94.5914V92.3008H6.87197V94.5914H9.16262V103.754H6.87197V101.463H2.29065V103.754H0V94.5914H2.29065ZM6.87197 99.1727V94.6098H2.29065V99.1727H6.87197ZM22.3568 103.754H24.6474V92.3008H22.3568V96.8821H20.0661V94.5914H17.7755V92.3008H15.4848V103.754H17.7755V96.8821H20.0661V99.1727H22.3568V103.754ZM51.0358 94.6098V101.445H46.4545V94.6098H51.0358ZM44.1638 101.463H46.4545V103.754H51.0358V101.463H53.3264V94.5914H51.0358V92.3008H46.4545V94.5914H44.1638V101.463ZM66.5206 94.5914V92.3008H61.9393V94.5914H59.6487V101.463H61.9393V103.754H66.5206V101.463H61.9393V94.5914H66.5206ZM79.7148 92.3008V94.5914H75.1335V92.3008H79.7148ZM75.1335 101.463H72.8428V94.5914H75.1335V101.463ZM75.1335 101.463H79.7148V103.754H75.1335V101.463ZM106.103 103.754V101.463H101.522V99.1727H106.103V96.8821H101.522V94.5914H106.103V92.3008H99.2312V103.754H106.103ZM112.425 92.3008H114.716V96.8821H112.425V92.3008ZM119.297 96.8821H114.716V99.1727H112.425V103.754H114.716V99.1727H119.297V103.754H121.588V99.1727H119.297V96.8821ZM119.297 96.8821V92.3008H121.588V96.8821H119.297ZM134.782 94.5914H137.073V99.1727H134.782V101.463H130.201V103.754H127.91V92.3008H134.782V94.5914ZM130.201 99.1544H134.782V94.6098H130.201V99.1544ZM150.267 101.463V103.754H143.395V92.3008H150.267V94.5914H145.686V96.8821H150.267V99.1727H145.686V101.463H150.267ZM165.752 103.754H163.461V101.463H165.752V103.754ZM163.461 99.1727V101.463H158.88V103.754H156.589V92.3008H163.461V94.5731H158.88V99.1544H163.461V94.5914H165.752V99.1727H163.461ZM178.946 94.5914H176.655V101.463H178.946V103.754H172.074V101.463H174.365V94.5914H172.074V92.3008H178.946V94.5914ZM187.559 94.5914V92.3008H185.268V103.754H187.559V96.8821H189.849V99.1727H192.14V96.8821H194.431V103.754H196.721V92.3008H194.431V94.5914H192.14V96.8821H189.849V94.5914H187.559ZM209.916 101.463V103.754H203.044V92.3008H209.916V94.5914H205.334V96.8821H209.916V99.1727H205.334V101.463H209.916ZM223.11 103.754H225.4V92.3008H223.11V96.8821H220.819V94.5914H218.528V92.3008H216.238V103.754H218.528V96.8821H220.819V99.1727H223.11V103.754ZM236.304 103.754H234.013V94.5914H231.723V92.3008H238.595V94.5914H236.304V103.754Z" fill="white"/>
</svg>
