<svg width="320" height="320" viewBox="0 0 320 320" xmlns="http://www.w3.org/2000/svg" shape-rendering="crispEdges"><g filter="url(#alteration)"><rect width="100%" height="100%" fill="#e1d7d5" /><rect width="140" height="10" x="90" y="210" fill="#068940" /><rect width="140" height="10" x="90" y="220" fill="#068940" /><rect width="140" height="10" x="90" y="230" fill="#068940" /><rect width="140" height="10" x="90" y="240" fill="#068940" /><rect width="20" height="10" x="90" y="250" fill="#068940" /><rect width="110" height="10" x="120" y="250" fill="#068940" /><rect width="20" height="10" x="90" y="260" fill="#068940" /><rect width="110" height="10" x="120" y="260" fill="#068940" /><rect width="20" height="10" x="90" y="270" fill="#068940" /><rect width="110" height="10" x="120" y="270" fill="#068940" /><rect width="20" height="10" x="90" y="280" fill="#068940" /><rect width="110" height="10" x="120" y="280" fill="#068940" /><rect width="20" height="10" x="90" y="290" fill="#068940" /><rect width="110" height="10" x="120" y="290" fill="#068940" /><rect width="20" height="10" x="90" y="300" fill="#068940" /><rect width="110" height="10" x="120" y="300" fill="#068940" /><rect width="20" height="10" x="90" y="310" fill="#068940" /><rect width="110" height="10" x="120" y="310" fill="#068940" /><rect width="140" height="10" x="90" y="210" fill="#ff1a0b" /><rect width="140" height="10" x="90" y="220" fill="#ff1a0b" /><rect width="140" height="10" x="90" y="230" fill="#f78a18" /><rect width="140" height="10" x="90" y="240" fill="#f78a18" /><rect width="20" height="10" x="90" y="250" fill="#fff449" /><rect width="110" height="10" x="120" y="250" fill="#fff449" /><rect width="20" height="10" x="90" y="260" fill="#fff449" /><rect width="110" height="10" x="120" y="260" fill="#fff449" /><rect width="20" height="10" x="90" y="270" fill="#068940" /><rect width="110" height="10" x="120" y="270" fill="#068940" /><rect width="20" height="10" x="90" y="280" fill="#068940" /><rect width="110" height="10" x="120" y="280" fill="#068940" /><rect width="20" height="10" x="90" y="290" fill="#2b83f6" /><rect width="110" height="10" x="120" y="290" fill="#2b83f6" /><rect width="20" height="10" x="90" y="300" fill="#2b83f6" /><rect width="110" height="10" x="120" y="300" fill="#2b83f6" /><rect width="20" height="10" x="90" y="310" fill="#9f21a0" /><rect width="110" height="10" x="120" y="310" fill="#9f21a0" /><rect width="40" height="10" x="130" y="30" fill="#395ed1" /><rect width="50" height="10" x="140" y="40" fill="#395ed1" /><rect width="50" height="10" x="150" y="50" fill="#395ed1" /><rect width="50" height="10" x="150" y="60" fill="#395ed1" /><rect width="10" height="10" x="30" y="70" fill="#395ed1" /><rect width="60" height="10" x="150" y="70" fill="#395ed1" /><rect width="10" height="10" x="40" y="80" fill="#395ed1" /><rect width="110" height="10" x="130" y="80" fill="#2b83f6" /><rect width="20" height="10" x="40" y="90" fill="#395ed1" /><rect width="140" height="10" x="110" y="90" fill="#2b83f6" /><rect width="30" height="10" x="40" y="100" fill="#395ed1" /><rect width="170" height="10" x="90" y="100" fill="#2b83f6" /><rect width="30" height="10" x="50" y="110" fill="#395ed1" /><rect width="180" height="10" x="90" y="110" fill="#2b83f6" /><rect width="40" height="10" x="50" y="120" fill="#395ed1" /><rect width="190" height="10" x="90" y="120" fill="#2b83f6" /><rect width="30" height="10" x="60" y="130" fill="#395ed1" /><rect width="190" height="10" x="90" y="130" fill="#2b83f6" /><rect width="30" height="10" x="60" y="140" fill="#395ed1" /><rect width="160" height="10" x="90" y="140" fill="#2b83f6" /><rect width="10" height="10" x="250" y="140" fill="#395ed1" /><rect width="10" height="10" x="260" y="140" fill="#2b83f6" /><rect width="30" height="10" x="60" y="150" fill="#395ed1" /><rect width="160" height="10" x="90" y="150" fill="#2b83f6" /><rect width="10" height="10" x="250" y="150" fill="#395ed1" /><rect width="10" height="10" x="260" y="150" fill="#2b83f6" /><rect width="30" height="10" x="50" y="160" fill="#395ed1" /><rect width="170" height="10" x="90" y="160" fill="#2b83f6" /><rect width="20" height="10" x="50" y="170" fill="#395ed1" /><rect width="170" height="10" x="90" y="170" fill="#2b83f6" /><rect width="10" height="10" x="50" y="180" fill="#395ed1" /><rect width="30" height="10" x="90" y="180" fill="#2b83f6" /><rect width="10" height="10" x="120" y="180" fill="#395ed1" /><rect width="10" height="10" x="130" y="180" fill="#2b83f6" /><rect width="10" height="10" x="140" y="180" fill="#395ed1" /><rect width="20" height="10" x="150" y="180" fill="#2b83f6" /><rect width="20" height="10" x="170" y="180" fill="#7cc4f2" /><rect width="10" height="10" x="190" y="180" fill="#ffffff" /><rect width="10" height="10" x="200" y="180" fill="#7cc4f2" /><rect width="10" height="10" x="210" y="180" fill="#ffffff" /><rect width="10" height="10" x="220" y="180" fill="#7cc4f2" /><rect width="10" height="10" x="230" y="180" fill="#ffffff" /><rect width="10" height="10" x="240" y="180" fill="#7cc4f2" /><rect width="10" height="10" x="40" y="190" fill="#395ed1" /><rect width="20" height="10" x="90" y="190" fill="#2b83f6" /><rect width="10" height="10" x="110" y="190" fill="#395ed1" /><rect width="10" height="10" x="120" y="190" fill="#2b83f6" /><rect width="10" height="10" x="130" y="190" fill="#395ed1" /><rect width="20" height="10" x="140" y="190" fill="#2b83f6" /><rect width="20" height="10" x="160" y="190" fill="#7cc4f2" /><rect width="10" height="10" x="180" y="190" fill="#ffffff" /><rect width="10" height="10" x="190" y="190" fill="#7cc4f2" /><rect width="10" height="10" x="200" y="190" fill="#ffffff" /><rect width="10" height="10" x="210" y="190" fill="#7cc4f2" /><rect width="10" height="10" x="220" y="190" fill="#ffffff" /><rect width="20" height="10" x="230" y="190" fill="#7cc4f2" /><rect width="60" height="10" x="90" y="200" fill="#2b83f6" /><rect width="90" height="10" x="150" y="200" fill="#7cc4f2" /><rect width="60" height="10" x="100" y="110" fill="#d7d3cd" /><rect width="60" height="10" x="170" y="110" fill="#d7d3cd" /><rect width="10" height="10" x="100" y="120" fill="#d7d3cd" /><rect width="20" height="10" x="110" y="120" fill="#fdf8ff" /><rect width="20" height="10" x="130" y="120" fill="#000000" /><rect width="10" height="10" x="150" y="120" fill="#d7d3cd" /><rect width="10" height="10" x="170" y="120" fill="#d7d3cd" /><rect width="20" height="10" x="180" y="120" fill="#fdf8ff" /><rect width="20" height="10" x="200" y="120" fill="#000000" /><rect width="10" height="10" x="220" y="120" fill="#d7d3cd" /><rect width="40" height="10" x="70" y="130" fill="#d7d3cd" /><rect width="20" height="10" x="110" y="130" fill="#fdf8ff" /><rect width="20" height="10" x="130" y="130" fill="#000000" /><rect width="30" height="10" x="150" y="130" fill="#d7d3cd" /><rect width="20" height="10" x="180" y="130" fill="#fdf8ff" /><rect width="20" height="10" x="200" y="130" fill="#000000" /><rect width="10" height="10" x="220" y="130" fill="#d7d3cd" /><rect width="10" height="10" x="70" y="140" fill="#d7d3cd" /><rect width="10" height="10" x="100" y="140" fill="#d7d3cd" /><rect width="20" height="10" x="110" y="140" fill="#fdf8ff" /><rect width="20" height="10" x="130" y="140" fill="#000000" /><rect width="10" height="10" x="150" y="140" fill="#d7d3cd" /><rect width="10" height="10" x="170" y="140" fill="#d7d3cd" /><rect width="20" height="10" x="180" y="140" fill="#fdf8ff" /><rect width="20" height="10" x="200" y="140" fill="#000000" /><rect width="10" height="10" x="220" y="140" fill="#d7d3cd" /><rect width="10" height="10" x="70" y="150" fill="#d7d3cd" /><rect width="10" height="10" x="100" y="150" fill="#d7d3cd" /><rect width="20" height="10" x="110" y="150" fill="#fdf8ff" /><rect width="20" height="10" x="130" y="150" fill="#000000" /><rect width="10" height="10" x="150" y="150" fill="#d7d3cd" /><rect width="10" height="10" x="170" y="150" fill="#d7d3cd" /><rect width="20" height="10" x="180" y="150" fill="#fdf8ff" /><rect width="20" height="10" x="200" y="150" fill="#000000" /><rect width="10" height="10" x="220" y="150" fill="#d7d3cd" /><rect width="60" height="10" x="100" y="160" fill="#d7d3cd" /><rect width="60" height="10" x="170" y="160" fill="#d7d3cd" /></g><defs><filter id="alteration" x="-50%" y="-50%" width="200%" height="200%"><feTurbulence baseFrequency="0.5" type="fractalNoise"></feTurbulence><feDisplacementMap in="SourceGraphic" scale="0"><animate attributeName="scale" begin="0s" dur="0.5s" values="36.72;58.84;36.90;14.99;13.26;47.30;58.24;21.58;46.51;40.17;35.83;36.08;42.74;32.16;46.57;33.67;17.31;52.09;30.80;40.37;43.99;36.21;16.18;20.04;15.72;50.92;41.35;26.12;31.38;30.41;59.51;10.51;45.48;19.59;58.88;33.92;26.88;13.50;31.85;43.88;33.05;22.82;56.26;27.90;51.95;26.47;27.13;32.41;18.12;52.98;50.04;17.62;27.43;52.81;21.61;15.11;25.89;27.39;39.35;51.29" repeatCount="indefinite"/></feDisplacementMap></filter></defs></svg>