<svg viewBox="0 0 500 500" fill="none" xmlns="http://www.w3.org/2000/svg" xmlns:xlink="http://www.w3.org/1999/xlink"><filter x="0" y="0" width="100%" height="100%" id="filterBG"><feTurbulence type="fractalNoise" baseFrequency="0.015"/><feComponentTransfer><feFuncA type="discrete" tableValues="0 1 0"/></feComponentTransfer><feColorMatrix values="0 0 0 1 0 0 0 0 1 0 0 0 0 1 0 0 0 0 0 1"/></filter><rect width="500" height="500" filter="url(#filterBG)"/><rect id="rect" style="mix-blend-mode:overlay" opacity=".2" width="100%" height="100%" fill="#EF303B"/><defs><filter id="Gl" x="-50%" y="-50%" width="200%" height="200%"><feTurbulence baseFrequency="0.03"/><feDisplacementMap in="SourceGraphic" scale="7"/><feOffset dy="-5" dx="-10"/><feDropShadow dx="8" dy="8" flood-color="#000000" flood-opacity="1" stdDeviation="0"/></filter></defs><g filter="url(#Gl)" stroke="#000000" stroke-width="4"><defs><path id="ps-4"  d="M250 184.5L275 212L274.04 221.028C273.07 230.142 267.879 238.272 260.02 242.988C253.853 246.688 246.147 246.688 239.98 242.988C232.121 238.272 226.93 230.142 225.96 221.028L225 212L250 184.5Z"/><mask id="fpc"><rect height="100%" width="100%" fill="white" /><use transform = "rotate(72.0 250 250)" xlink:href="#ps-4" fill="black"/></mask></defs><use transform="rotate(0.0 250 250)" xlink:href="#ps-4" mask="url(#fpc)" fill="#FFFFFF"/><use transform="rotate(72.0 250 250)" xlink:href="#ps-4" mask="url(#fpc)" fill="#FFFFFF"/><use transform="rotate(144.0 250 250)" xlink:href="#ps-4" mask="url(#fpc)" fill="#FFFFFF"/><use transform="rotate(216.0 250 250)" xlink:href="#ps-4" mask="url(#fpc)" fill="#FFFFFF"/><use transform="rotate(288.0 250 250)" xlink:href="#ps-4" mask="url(#fpc)" fill="#FFFFFF"/><circle cx="250" cy="250" r="19" fill="#1FC8A9"/></g></svg>