<svg viewBox="0 0 500 500" fill="none" xmlns="http://www.w3.org/2000/svg" xmlns:xlink="http://www.w3.org/1999/xlink"><rect width="500" height="500" fill="#EEE9DC" /><rect id="rect" style="mix-blend-mode:overlay" opacity=".2" width="100%" height="100%" fill="#F2F2F2"/><defs><filter id="Gl" x="-50%" y="-50%" width="200%" height="200%"><feTurbulence baseFrequency="0.04"/><feDisplacementMap in="SourceGraphic" scale="7"/><feOffset dy="-5" dx="-10"/><feDropShadow dx="8" dy="8" flood-color="#000000" flood-opacity="1" stdDeviation="0"/></filter></defs><g filter="url(#Gl)" stroke="#000000" stroke-width="4"><defs><path id="ps-12"  d="M231.839 187.485C229.349 175.917 238.166 165 250 165V165C261.834 165 270.651 175.917 268.161 187.485L257.262 238.134C256.526 241.556 253.5 244 250 244V244C246.5 244 243.474 241.556 242.738 238.134L231.839 187.485Z"/><mask id="fpc"><rect height="100%" width="100%" fill="white" /><use transform = "rotate(40.0 250 250)" xlink:href="#ps-12" fill="black"/></mask></defs><use transform="rotate(0.0 250 250)" xlink:href="#ps-12" mask="url(#fpc)" fill="#FCA59B"/><use transform="rotate(40.0 250 250)" xlink:href="#ps-12" mask="url(#fpc)" fill="#FCA59B"/><use transform="rotate(80.0 250 250)" xlink:href="#ps-12" mask="url(#fpc)" fill="#FCA59B"/><use transform="rotate(120.0 250 250)" xlink:href="#ps-12" mask="url(#fpc)" fill="#FCA59B"/><use transform="rotate(160.0 250 250)" xlink:href="#ps-12" mask="url(#fpc)" fill="#FCA59B"/><use transform="rotate(200.0 250 250)" xlink:href="#ps-12" mask="url(#fpc)" fill="#FCA59B"/><use transform="rotate(240.0 250 250)" xlink:href="#ps-12" mask="url(#fpc)" fill="#FCA59B"/><use transform="rotate(280.0 250 250)" xlink:href="#ps-12" mask="url(#fpc)" fill="#FCA59B"/><use transform="rotate(320.0 250 250)" xlink:href="#ps-12" mask="url(#fpc)" fill="#FCA59B"/><circle cx="250" cy="250" r="28" fill="#FB5408"/></g></svg>