<svg viewBox="0 0 500 500" fill="none" xmlns="http://www.w3.org/2000/svg" xmlns:xlink="http://www.w3.org/1999/xlink"><rect width="500" height="500" fill="#FDB90B" /><rect id="rect" style="mix-blend-mode:overlay" opacity=".2" width="100%" height="100%" fill="#F2F2F2"/><defs><filter xmlns="http://www.w3.org/2000/svg" id="Gl" x="-50%" y="-50%" width="200%" height="200%"><feDropShadow dx="8" dy="8" flood-color="#000000" flood-opacity="1" stdDeviation="0"/></filter></defs><g filter="url(#Gl)" stroke="#000000" stroke-width="4"><defs><path id="ps-3"  d="M276 206C266 242 250 242 250 242C250 242 234 242 224 206C217 180 250 166 250 166C250 166 283 180 276 206Z"/><mask id="fpc"><rect height="100%" width="100%" fill="white" /><use transform = "rotate(40.0 250 250)" xlink:href="#ps-3" fill="black"/></mask></defs><use transform="rotate(0.0 250 250)" xlink:href="#ps-3" mask="url(#fpc)" fill="#EEE9DC"/><use transform="rotate(40.0 250 250)" xlink:href="#ps-3" mask="url(#fpc)" fill="#EEE9DC"/><use transform="rotate(80.0 250 250)" xlink:href="#ps-3" mask="url(#fpc)" fill="#EEE9DC"/><use transform="rotate(120.0 250 250)" xlink:href="#ps-3" mask="url(#fpc)" fill="#EEE9DC"/><use transform="rotate(160.0 250 250)" xlink:href="#ps-3" mask="url(#fpc)" fill="#EEE9DC"/><use transform="rotate(200.0 250 250)" xlink:href="#ps-3" mask="url(#fpc)" fill="#EEE9DC"/><use transform="rotate(240.0 250 250)" xlink:href="#ps-3" mask="url(#fpc)" fill="#EEE9DC"/><use transform="rotate(280.0 250 250)" xlink:href="#ps-3" mask="url(#fpc)" fill="#EEE9DC"/><use transform="rotate(320.0 250 250)" xlink:href="#ps-3" mask="url(#fpc)" fill="#EEE9DC"/><circle cx="250" cy="250" r="24" fill="#EF303B"/></g></svg>