<svg viewBox="0 0 500 500" fill="none" xmlns="http://www.w3.org/2000/svg" xmlns:xlink="http://www.w3.org/1999/xlink"><rect width="500" height="500" fill="#0E38B1" /><rect id="rect" style="mix-blend-mode:overlay" opacity=".2" width="100%" height="100%" fill="#189BA3"/><defs><filter id="Gl" x="-50%" y="-50%" width="200%" height="200%"><feTurbulence baseFrequency="0.5"/><feDisplacementMap in="SourceGraphic" scale="30"/><feOffset dy="-5" dx="-12"/><feDropShadow dx="8" dy="8" flood-color="#000000" flood-opacity="1" stdDeviation="0"/></filter></defs><g filter="url(#Gl)" stroke="#000000" stroke-width="4"><defs><path id="ps-7"  d="M271.934 211.182L250 248L228.066 211.182C224.326 204.904 224.308 197.085 228.019 190.79L244.831 162.269C247.152 158.331 252.848 158.331 255.169 162.269L271.981 190.79C275.692 197.085 275.674 204.904 271.934 211.182Z"/><mask id="fpc"><rect height="100%" width="100%" fill="white" /><use transform = "rotate(45.0 250 250)" xlink:href="#ps-7" fill="black"/></mask></defs><use transform="rotate(0.0 250 250)" xlink:href="#ps-7" mask="url(#fpc)" fill="#FEDAC2"/><use transform="rotate(45.0 250 250)" xlink:href="#ps-7" mask="url(#fpc)" fill="#FEDAC2"/><use transform="rotate(90.0 250 250)" xlink:href="#ps-7" mask="url(#fpc)" fill="#FEDAC2"/><use transform="rotate(135.0 250 250)" xlink:href="#ps-7" mask="url(#fpc)" fill="#FEDAC2"/><use transform="rotate(180.0 250 250)" xlink:href="#ps-7" mask="url(#fpc)" fill="#FEDAC2"/><use transform="rotate(225.0 250 250)" xlink:href="#ps-7" mask="url(#fpc)" fill="#FEDAC2"/><use transform="rotate(270.0 250 250)" xlink:href="#ps-7" mask="url(#fpc)" fill="#FEDAC2"/><use transform="rotate(315.0 250 250)" xlink:href="#ps-7" mask="url(#fpc)" fill="#FEDAC2"/><circle cx="250" cy="250" r="23" fill="#FFFFFF"/></g></svg>