<svg viewBox="0 0 500 500" fill="none" xmlns="http://www.w3.org/2000/svg" xmlns:xlink="http://www.w3.org/1999/xlink"><rect width="500" height="500" fill="#EEE9DC" /><rect id="rect" style="mix-blend-mode:overlay" opacity=".2" width="100%" height="100%" fill="#B3E0E0"/><defs><filter xmlns="http://www.w3.org/2000/svg" id="Gl" x="-50%" y="-50%" width="200%" height="200%"><feDropShadow dx="8" dy="8" flood-color="#000000" flood-opacity="1" stdDeviation="0"/></filter></defs><g filter="url(#Gl)" stroke="#000000" stroke-width="4"><defs><path id="ps-0"  d="M249.5 239.145C256.528 233.275 261 224.446 261 214.572C261 204.699 256.528 195.87 249.5 190C242.472 195.87 238 204.699 238 214.572C238 224.446 242.472 233.275 249.5 239.145Z"/><mask id="fpc"><rect height="100%" width="100%" fill="white" /><use transform = "rotate(40.0 250 250)" xlink:href="#ps-0" fill="black"/></mask></defs><use transform="rotate(0.0 250 250)" xlink:href="#ps-0" mask="url(#fpc)" fill="#C886A2"/><use transform="rotate(40.0 250 250)" xlink:href="#ps-0" mask="url(#fpc)" fill="#C886A2"/><use transform="rotate(80.0 250 250)" xlink:href="#ps-0" mask="url(#fpc)" fill="#C886A2"/><use transform="rotate(120.0 250 250)" xlink:href="#ps-0" mask="url(#fpc)" fill="#C886A2"/><use transform="rotate(160.0 250 250)" xlink:href="#ps-0" mask="url(#fpc)" fill="#C886A2"/><use transform="rotate(200.0 250 250)" xlink:href="#ps-0" mask="url(#fpc)" fill="#C886A2"/><use transform="rotate(240.0 250 250)" xlink:href="#ps-0" mask="url(#fpc)" fill="#C886A2"/><use transform="rotate(280.0 250 250)" xlink:href="#ps-0" mask="url(#fpc)" fill="#C886A2"/><use transform="rotate(320.0 250 250)" xlink:href="#ps-0" mask="url(#fpc)" fill="#C886A2"/><circle cx="250" cy="250" r="28" fill="#FFFFFF"/></g></svg>