<svg width="512" height="512" viewBox="0 0 512 512" fill="none" xmlns="http://www.w3.org/2000/svg">
<rect width="512" height="512" rx="71.5829" fill="white"/>
<g filter="url(#filter0_d)">
<path d="M219.466 130.233C214.457 106.961 232.195 84.9985 256.002 84.9985C279.809 84.9985 297.547 106.961 292.538 130.233L270.611 232.127C269.131 239.011 263.043 243.928 256.002 243.928C248.961 243.928 242.873 239.011 241.393 232.127L219.466 130.233Z" fill="white" stroke="black" stroke-width="8.04706"/>
<path d="M319.093 141.233C332.006 121.235 360.079 118.248 376.913 135.082C393.747 151.916 390.76 179.988 370.762 192.902L283.208 249.448C277.293 253.269 269.512 252.441 264.533 247.462C259.554 242.483 258.726 234.702 262.547 228.787L319.093 141.233Z" fill="white" stroke="black" stroke-width="8.04706"/>
<path d="M381.766 219.461C405.039 214.452 427.001 232.19 427.001 255.997C427.001 279.804 405.039 297.542 381.766 292.533L279.873 270.607C272.988 269.126 268.072 263.038 268.072 255.997C268.072 248.956 272.988 242.868 279.873 241.388L381.766 219.461Z" fill="white" stroke="black" stroke-width="8.04706"/>
<path d="M370.762 319.094C390.76 332.008 393.747 360.08 376.913 376.914C360.079 393.749 332.007 390.761 319.093 370.763L262.547 283.209C258.726 277.294 259.554 269.513 264.533 264.534C269.512 259.556 277.293 258.728 283.208 262.549L370.762 319.094Z" fill="white" stroke="black" stroke-width="8.04706"/>
<path d="M292.537 381.763C297.546 405.035 279.808 426.998 256.001 426.998C232.194 426.998 214.456 405.035 219.465 381.763L241.392 279.869C242.872 272.985 248.96 268.068 256.001 268.068C263.042 268.068 269.13 272.985 270.61 279.869L292.537 381.763Z" fill="white" stroke="black" stroke-width="8.04706"/>
<path d="M192.901 370.764C179.988 390.762 151.915 393.749 135.081 376.915C118.247 360.081 121.234 332.009 141.232 319.095L228.786 262.549C234.701 258.728 242.482 259.556 247.461 264.535C252.44 269.514 253.268 277.295 249.447 283.21L192.901 370.764Z" fill="white" stroke="black" stroke-width="8.04706"/>
<path d="M130.235 292.534C106.962 297.543 85 279.806 85 255.999C85 232.191 106.962 214.454 130.235 219.463L232.128 241.389C239.013 242.87 243.929 248.957 243.929 255.999C243.929 263.04 239.013 269.127 232.128 270.608L130.235 292.534Z" fill="white" stroke="black" stroke-width="8.04706"/>
<path d="M141.233 192.901C121.235 179.988 118.248 151.915 135.082 135.081C151.916 118.247 179.988 121.234 192.902 141.232L249.448 228.786C253.269 234.701 252.441 242.482 247.462 247.461C242.483 252.44 234.702 253.268 228.787 249.447L141.233 192.901Z" fill="white" stroke="black" stroke-width="8.04706"/>
<path d="M255.999 310.316C285.998 310.316 310.317 285.997 310.317 255.999C310.317 226 285.998 201.681 255.999 201.681C226 201.681 201.682 226 201.682 255.999C201.682 285.997 226 310.316 255.999 310.316Z" fill="#FFCC4C" stroke="black" stroke-width="8.04706"/>
</g>
<defs>
<filter id="filter0_d" x="80.9766" y="80.9751" width="366.142" height="366.14" filterUnits="userSpaceOnUse" color-interpolation-filters="sRGB">
<feFlood flood-opacity="0" result="BackgroundImageFix"/>
<feColorMatrix in="SourceAlpha" type="matrix" values="0 0 0 0 0 0 0 0 0 0 0 0 0 0 0 0 0 0 127 0" result="hardAlpha"/>
<feOffset dx="16.0941" dy="16.0941"/>
<feColorMatrix type="matrix" values="0 0 0 0 0 0 0 0 0 0 0 0 0 0 0 0 0 0 1 0"/>
<feBlend mode="normal" in2="BackgroundImageFix" result="effect1_dropShadow"/>
<feBlend mode="normal" in="SourceGraphic" in2="effect1_dropShadow" result="shape"/>
</filter>
</defs>
</svg>
