<svg width="192" height="192" viewBox="0 0 192 192" fill="none" xmlns="http://www.w3.org/2000/svg">
<rect width="192" height="192" rx="26.8436" fill="black"/>
<g filter="url(#filter0_d)">
<path d="M82.148 49.5326C80.3171 41.0267 86.8002 32.9995 95.5017 32.9995C104.203 32.9995 110.686 41.0267 108.855 49.5326L100.841 86.7745C100.3 89.2907 98.0752 91.0877 95.5017 91.0877C92.9281 91.0877 90.7031 89.2907 90.162 86.7745L82.148 49.5326Z" fill="white" stroke="black" stroke-width="2.94118"/>
<path d="M118.56 53.5527C123.28 46.2435 133.54 45.1517 139.693 51.3045C145.846 57.4574 144.754 67.7177 137.445 72.4377L105.444 93.1049C103.282 94.5015 100.438 94.1989 98.6181 92.3791C96.7984 90.5593 96.4958 87.7153 97.8923 85.5535L118.56 53.5527Z" fill="white" stroke="black" stroke-width="2.94118"/>
<path d="M141.468 82.1448C149.974 80.3139 158.001 86.797 158.001 95.4985C158.001 104.2 149.974 110.683 141.468 108.852L104.226 100.838C101.71 100.297 99.9127 98.072 99.9127 95.4985C99.9127 92.925 101.71 90.7 104.226 90.1588L141.468 82.1448Z" fill="white" stroke="black" stroke-width="2.94118"/>
<path d="M137.445 118.561C144.754 123.281 145.846 133.541 139.693 139.694C133.54 145.847 123.28 144.755 118.56 137.446L97.8926 105.445C96.4961 103.283 96.7987 100.439 98.6185 98.6193C100.438 96.7996 103.282 96.497 105.444 97.8935L137.445 118.561Z" fill="white" stroke="black" stroke-width="2.94118"/>
<path d="M108.854 141.466C110.685 149.972 104.202 158 95.5003 158C86.7988 158 80.3157 149.972 82.1466 141.466L90.1606 104.225C90.7018 101.708 92.9268 99.9113 95.5003 99.9113C98.0738 99.9113 100.299 101.708 100.84 104.225L108.854 141.466Z" fill="white" stroke="black" stroke-width="2.94118"/>
<path d="M72.4375 137.446C67.7176 144.755 57.4572 145.847 51.3044 139.694C45.1515 133.541 46.2433 123.281 53.5525 118.561L85.5533 97.8936C87.7152 96.4971 90.5592 96.7997 92.379 98.6194C94.1987 100.439 94.5013 103.283 93.1048 105.445L72.4375 137.446Z" fill="white" stroke="black" stroke-width="2.94118"/>
<path d="M49.5331 108.853C41.0272 110.684 33 104.201 33 95.4996C33 86.7981 41.0272 80.315 49.5331 82.1459L86.775 90.1599C89.2912 90.701 91.0882 92.926 91.0882 95.4996C91.0882 98.0731 89.2912 100.298 86.775 100.839L49.5331 108.853Z" fill="white" stroke="black" stroke-width="2.94118"/>
<path d="M53.5522 72.438C46.243 67.718 45.1512 57.4577 51.304 51.3049C57.4569 45.152 67.7172 46.2438 72.4372 53.553L93.1044 85.5538C94.501 87.7157 94.1984 90.5597 92.3786 92.3794C90.5589 94.1992 87.7148 94.5018 85.553 93.1053L53.5522 72.438Z" fill="white" stroke="black" stroke-width="2.94118"/>
<path d="M95.4994 115.352C106.464 115.352 115.352 106.464 115.352 95.4994C115.352 84.5349 106.464 75.6465 95.4994 75.6465C84.5349 75.6465 75.6465 84.5349 75.6465 95.4994C75.6465 106.464 84.5349 115.352 95.4994 115.352Z" fill="#FFCC4C" stroke="black" stroke-width="2.94118"/>
</g>
<defs>
<filter id="filter0_d" x="31.5293" y="31.5288" width="133.825" height="133.824" filterUnits="userSpaceOnUse" color-interpolation-filters="sRGB">
<feFlood flood-opacity="0" result="BackgroundImageFix"/>
<feColorMatrix in="SourceAlpha" type="matrix" values="0 0 0 0 0 0 0 0 0 0 0 0 0 0 0 0 0 0 127 0" result="hardAlpha"/>
<feOffset dx="5.88235" dy="5.88235"/>
<feColorMatrix type="matrix" values="0 0 0 0 0 0 0 0 0 0 0 0 0 0 0 0 0 0 1 0"/>
<feBlend mode="normal" in2="BackgroundImageFix" result="effect1_dropShadow"/>
<feBlend mode="normal" in="SourceGraphic" in2="effect1_dropShadow" result="shape"/>
</filter>
</defs>
</svg>
