<svg width="927" height="309" viewBox="0 0 927 309" fill="none" xmlns="http://www.w3.org/2000/svg">
<g clip-path="url(#clip0)">
<path d="M0 0.000976562L0 309.001H309V0.000976562H0Z" fill="#343B3F"/>
<g style="mix-blend-mode:overlay" opacity="0.5">
<path d="M0 0.000976562L0 309.001H309V0.000976562H0Z" fill="#FFCC4C"/>
</g>
</g>
<path d="M310 0H0V309H310V0Z" fill="#0D8B93"/>
<path d="M154.496 148.84C167.751 148.84 178.496 137.235 178.496 122.92C178.496 108.605 167.751 97 154.496 97C141.242 97 130.496 108.605 130.496 122.92C130.496 137.235 141.242 148.84 154.496 148.84Z" fill="#343B3F" stroke="black" stroke-width="3.84"/>
<path d="M159 151.009C167.264 161.372 183.037 162.537 194.229 153.612C205.421 144.686 207.794 129.05 199.53 118.687C191.266 108.324 175.493 107.158 164.301 116.084C153.109 125.009 150.736 140.645 159 151.009Z" fill="#343B3F" stroke="black" stroke-width="3.84"/>
<path d="M160.112 155.881C157.162 168.804 166.085 181.862 180.042 185.047C193.998 188.233 207.703 180.339 210.652 167.417C213.602 154.494 204.679 141.436 190.723 138.251C176.766 135.065 163.061 142.959 160.112 155.881Z" fill="#343B3F" stroke="black" stroke-width="3.84"/>
<path d="M156.996 159.79C145.053 165.541 140.407 180.659 146.619 193.556C152.83 206.454 167.546 212.247 179.488 206.496C191.43 200.745 196.076 185.627 189.865 172.73C183.654 159.832 168.938 154.039 156.996 159.79Z" fill="#343B3F" stroke="black" stroke-width="3.84"/>
<path d="M151.997 159.79C140.055 154.039 125.339 159.832 119.128 172.73C112.917 185.627 117.562 200.745 129.505 206.496C141.447 212.247 156.163 206.454 162.374 193.556C168.585 180.659 163.939 165.541 151.997 159.79Z" fill="#343B3F" stroke="black" stroke-width="3.84"/>
<path d="M148.881 155.882C145.931 142.959 132.226 135.066 118.27 138.251C104.314 141.437 95.3909 154.495 98.3404 167.417C101.29 180.34 114.995 188.233 128.951 185.048C142.907 181.862 151.83 168.804 148.881 155.882Z" fill="#343B3F" stroke="black" stroke-width="3.84"/>
<path d="M149.993 151.009C158.257 140.646 155.884 125.01 144.692 116.084C133.5 107.159 117.727 108.324 109.463 118.687C101.199 129.05 103.572 144.687 114.764 153.612C125.956 162.537 141.729 161.372 149.993 151.009Z" fill="#343B3F" stroke="black" stroke-width="3.84"/>
<path d="M154.496 187.24C172.523 187.24 187.136 172.627 187.136 154.6C187.136 136.573 172.523 121.96 154.496 121.96C136.47 121.96 121.856 136.573 121.856 154.6C121.856 172.627 136.47 187.24 154.496 187.24Z" fill="#FFCC4C" stroke="black" stroke-width="3.84"/>
<g clip-path="url(#clip1)">
<path d="M309 0.000976562V309.001H618V0.000976562H309Z" fill="#F2F2F2"/>
<g style="mix-blend-mode:overlay" opacity="0.5">
<path d="M309 0.000976562V309.001H618V0.000976562H309Z" fill="#32B67A"/>
</g>
<g filter="url(#filter0_d)">
<path d="M424.866 165.725C417.717 167.264 410.97 161.815 410.97 154.501C410.97 147.188 417.717 141.739 424.866 143.278L456.167 150.013C458.282 150.468 459.792 152.338 459.792 154.501C459.792 156.664 458.282 158.534 456.167 158.989L424.866 165.725Z" fill="#EEE9DC" stroke="black" stroke-width="2.472"/>
<path d="M428.245 135.118C422.102 131.151 421.184 122.528 426.356 117.356C431.527 112.185 440.151 113.103 444.118 119.246L461.488 146.142C462.662 147.959 462.408 150.349 460.878 151.879C459.349 153.408 456.958 153.663 455.141 152.489L428.245 135.118Z" fill="#EEE9DC" stroke="black" stroke-width="2.472"/>
<path d="M452.277 115.866C450.738 108.717 456.187 101.971 463.5 101.971C470.813 101.971 476.262 108.717 474.724 115.866L467.988 147.168C467.533 149.282 465.663 150.793 463.5 150.793C461.337 150.793 459.467 149.282 459.012 147.168L452.277 115.866Z" fill="#EEE9DC" stroke="black" stroke-width="2.472"/>
<path d="M482.882 119.246C486.849 113.103 495.473 112.185 500.644 117.356C505.816 122.528 504.898 131.151 498.755 135.118L471.859 152.489C470.042 153.663 467.651 153.408 466.122 151.879C464.592 150.349 464.338 147.959 465.512 146.142L482.882 119.246Z" fill="#EEE9DC" stroke="black" stroke-width="2.472"/>
<path d="M502.134 143.277C509.283 141.738 516.03 147.187 516.03 154.501C516.03 161.814 509.283 167.263 502.134 165.724L470.833 158.988C468.718 158.534 467.208 156.664 467.208 154.501C467.208 152.338 468.718 150.468 470.833 150.013L502.134 143.277Z" fill="#EEE9DC" stroke="black" stroke-width="2.472"/>
<path d="M498.755 173.884C504.898 177.851 505.816 186.474 500.644 191.645C495.473 196.817 486.849 195.899 482.882 189.756L465.512 162.86C464.338 161.043 464.592 158.653 466.122 157.123C467.651 155.594 470.042 155.339 471.859 156.513L498.755 173.884Z" fill="#EEE9DC" stroke="black" stroke-width="2.472"/>
<path d="M474.723 193.136C476.262 200.285 470.813 207.031 463.5 207.031C456.187 207.031 450.738 200.285 452.276 193.136L459.012 161.834C459.467 159.72 461.337 158.209 463.5 158.209C465.663 158.209 467.533 159.72 467.988 161.834L474.723 193.136Z" fill="#EEE9DC" stroke="black" stroke-width="2.472"/>
<path d="M444.118 189.756C440.151 195.899 431.527 196.817 426.356 191.646C421.184 186.474 422.102 177.851 428.245 173.884L455.141 156.513C456.958 155.339 459.349 155.594 460.878 157.123C462.408 158.653 462.662 161.043 461.488 162.86L444.118 189.756Z" fill="#EEE9DC" stroke="black" stroke-width="2.472"/>
<path d="M480.186 154.501C480.186 145.285 472.715 137.815 463.5 137.815C454.285 137.815 446.814 145.285 446.814 154.501C446.814 163.716 454.285 171.187 463.5 171.187C472.715 171.187 480.186 163.716 480.186 154.501Z" fill="#FFCC4C" stroke="black" stroke-width="2.472"/>
</g>
</g>
<g clip-path="url(#clip2)">
<path d="M618 0.000976562V309.001H927V0.000976562H618Z" fill="#0E38B1"/>
<g style="mix-blend-mode:overlay" opacity="0.5">
<path d="M618 0.000976562V309.001H927V0.000976562H618Z" fill="#EF3E4A"/>
</g>
<g filter="url(#filter1_d)">
<path fill-rule="evenodd" clip-rule="evenodd" d="M765.792 154.81C762.164 150.467 756.708 147.703 750.605 147.703C744.504 147.703 739.048 150.467 735.42 154.81C739.048 159.153 744.504 161.917 750.605 161.917C756.708 161.917 762.164 159.153 765.792 154.81Z" fill="#FEDCCC" stroke="black" stroke-width="2.472"/>
<path fill-rule="evenodd" clip-rule="evenodd" d="M766.891 150.808C766.509 145.162 763.719 139.719 758.783 136.132C753.846 132.546 747.808 131.575 742.32 132.956C742.702 138.602 745.492 144.045 750.428 147.632C755.365 151.219 761.403 152.19 766.891 150.808Z" fill="#FEDCCC" stroke="black" stroke-width="2.472"/>
<path fill-rule="evenodd" clip-rule="evenodd" d="M770.133 148.216C773.143 143.424 774.085 137.381 772.199 131.577C770.314 125.774 765.999 121.439 760.748 119.331C757.738 124.123 756.796 130.167 758.681 135.97C760.567 141.773 764.881 146.108 770.133 148.216Z" fill="#FEDCCC" stroke="black" stroke-width="2.472"/>
<path fill-rule="evenodd" clip-rule="evenodd" d="M774.279 148.026C779.531 145.918 783.845 141.582 785.731 135.779C787.616 129.976 786.674 123.933 783.664 119.141C778.413 121.248 774.098 125.584 772.213 131.387C770.327 137.19 771.269 143.233 774.279 148.026Z" fill="#FEDCCC" stroke="black" stroke-width="2.472"/>
<path fill-rule="evenodd" clip-rule="evenodd" d="M777.745 150.308C783.233 151.689 789.272 150.718 794.209 147.131C799.145 143.545 801.935 138.102 802.317 132.456C796.829 131.074 790.79 132.045 785.854 135.632C780.917 139.219 778.127 144.662 777.745 150.308Z" fill="#FEDCCC" stroke="black" stroke-width="2.472"/>
<path fill-rule="evenodd" clip-rule="evenodd" d="M779.208 154.192C782.836 158.535 788.292 161.299 794.394 161.299C800.496 161.299 805.952 158.535 809.58 154.192C805.952 149.849 800.496 147.085 794.394 147.085C788.292 147.085 782.836 149.849 779.208 154.192Z" fill="#FEDCCC" stroke="black" stroke-width="2.472"/>
<path fill-rule="evenodd" clip-rule="evenodd" d="M778.109 158.194C778.491 163.84 781.281 169.283 786.217 172.869C791.154 176.456 797.192 177.427 802.68 176.046C802.298 170.399 799.508 164.956 794.572 161.37C789.635 157.783 783.597 156.812 778.109 158.194Z" fill="#FEDCCC" stroke="black" stroke-width="2.472"/>
<path fill-rule="evenodd" clip-rule="evenodd" d="M774.867 160.786C771.857 165.578 770.915 171.621 772.8 177.425C774.686 183.228 779 187.563 784.252 189.671C787.262 184.879 788.204 178.835 786.319 173.032C784.433 167.229 780.118 162.894 774.867 160.786Z" fill="#FEDCCC" stroke="black" stroke-width="2.472"/>
<path fill-rule="evenodd" clip-rule="evenodd" d="M770.721 160.976C765.469 163.084 761.155 167.42 759.269 173.223C757.384 179.026 758.326 185.069 761.336 189.861C766.587 187.753 770.902 183.418 772.787 177.615C774.673 171.812 773.731 165.769 770.721 160.976Z" fill="#FEDCCC" stroke="black" stroke-width="2.472"/>
<path fill-rule="evenodd" clip-rule="evenodd" d="M767.254 158.694C761.767 157.313 755.728 158.284 750.791 161.871C745.855 165.457 743.065 170.9 742.683 176.546C748.171 177.928 754.21 176.956 759.146 173.37C764.083 169.783 766.872 164.34 767.254 158.694Z" fill="#FEDCCC" stroke="black" stroke-width="2.472"/>
<path fill-rule="evenodd" clip-rule="evenodd" d="M762.135 151.41C763.493 152.386 764.722 153.529 765.792 154.81C762.164 159.153 756.708 161.917 750.605 161.917C744.504 161.917 739.048 159.153 735.42 154.81C739.032 150.485 744.457 147.727 750.527 147.703C754.044 150.226 758.11 151.43 762.135 151.41Z" fill="#FEDCCC"/>
<path d="M765.792 154.81L766.74 155.602L767.402 154.81L766.74 154.018L765.792 154.81ZM762.135 151.41L762.856 150.406L762.53 150.172L762.129 150.174L762.135 151.41ZM735.42 154.81L734.471 154.018L733.81 154.81L734.471 155.602L735.42 154.81ZM750.527 147.703L751.248 146.699L750.922 146.466L750.522 146.467L750.527 147.703ZM766.74 154.018C765.604 152.657 764.299 151.443 762.856 150.406L761.414 152.413C762.687 153.328 763.839 154.401 764.843 155.602L766.74 154.018ZM750.605 163.153C757.089 163.153 762.888 160.215 766.74 155.602L764.843 154.018C761.44 158.092 756.326 160.681 750.605 160.681V163.153ZM734.471 155.602C738.324 160.215 744.122 163.153 750.605 163.153V160.681C744.886 160.681 739.771 158.092 736.369 154.018L734.471 155.602ZM750.522 146.467C744.072 146.492 738.307 149.425 734.471 154.018L736.369 155.602C739.757 151.546 744.842 148.961 750.532 148.939L750.522 146.467ZM749.807 148.707C753.542 151.387 757.865 152.667 762.141 152.646L762.129 150.174C758.356 150.193 754.545 149.064 751.248 146.699L749.807 148.707Z" fill="black"/>
<path d="M791.04 154.501C791.04 144.262 782.739 135.961 772.5 135.961C762.261 135.961 753.96 144.262 753.96 154.501C753.96 164.74 762.261 173.041 772.5 173.041C782.739 173.041 791.04 164.74 791.04 154.501Z" fill="#FF8FA4" stroke="black" stroke-width="2.472"/>
</g>
</g>
<defs>
<filter id="filter0_d" x="409.734" y="100.734" width="112.476" height="112.477" filterUnits="userSpaceOnUse" color-interpolation-filters="sRGB">
<feFlood flood-opacity="0" result="BackgroundImageFix"/>
<feColorMatrix in="SourceAlpha" type="matrix" values="0 0 0 0 0 0 0 0 0 0 0 0 0 0 0 0 0 0 127 0" result="hardAlpha"/>
<feOffset dx="4.944" dy="4.944"/>
<feColorMatrix type="matrix" values="0 0 0 0 0 0 0 0 0 0 0 0 0 0 0 0 0 0 1 0"/>
<feBlend mode="normal" in2="BackgroundImageFix" result="effect1_dropShadow"/>
<feBlend mode="normal" in="SourceGraphic" in2="effect1_dropShadow" result="shape"/>
</filter>
<filter id="filter1_d" x="733.81" y="116.944" width="82.3248" height="80.0577" filterUnits="userSpaceOnUse" color-interpolation-filters="sRGB">
<feFlood flood-opacity="0" result="BackgroundImageFix"/>
<feColorMatrix in="SourceAlpha" type="matrix" values="0 0 0 0 0 0 0 0 0 0 0 0 0 0 0 0 0 0 127 0" result="hardAlpha"/>
<feOffset dx="4.944" dy="4.944"/>
<feColorMatrix type="matrix" values="0 0 0 0 0 0 0 0 0 0 0 0 0 0 0 0 0 0 0.95 0"/>
<feBlend mode="normal" in2="BackgroundImageFix" result="effect1_dropShadow"/>
<feBlend mode="normal" in="SourceGraphic" in2="effect1_dropShadow" result="shape"/>
</filter>
<clipPath id="clip0">
<rect width="309" height="309" fill="white" transform="translate(0 309) rotate(-90)"/>
</clipPath>
<clipPath id="clip1">
<rect width="309" height="309" fill="white" transform="translate(309 309.001) rotate(-90)"/>
</clipPath>
<clipPath id="clip2">
<rect width="309" height="309" fill="white" transform="translate(618 309.001) rotate(-90)"/>
</clipPath>
</defs>
</svg>
