<svg width="836" height="279" viewBox="0 0 836 279" fill="none" xmlns="http://www.w3.org/2000/svg">
<g clip-path="url(#clip0)">
<path d="M836 278.667H557.333V-0.000152588H836V278.667Z" fill="#343B3F"/>
<g style="mix-blend-mode:overlay" opacity="0.5">
<path d="M836 278.667H557.333V-0.000152588H836V278.667Z" fill="#B6CAC0"/>
</g>
<g clip-path="url(#clip1)" filter="url(#filter0_d)">
<path d="M687.719 151.623C683.393 155.949 684.631 163.32 689.382 167.174C693.318 170.366 696.87 174.377 696.935 178.492C697.029 184.456 704.287 175.47 709.463 168.285C712.54 164.014 711.914 158.188 708.192 154.466L696.534 142.808L687.719 151.623Z" fill="#FAAD58" stroke="black" stroke-width="2.22933"/>
<path d="M700.698 153.991C701.383 160.07 707.918 163.698 713.893 162.386C718.843 161.299 724.194 161.023 727.451 163.538C732.173 167.183 729.673 155.906 727.282 147.379C725.861 142.31 720.916 139.167 715.685 139.756L699.302 141.602L700.698 153.991Z" fill="#FAAD58" stroke="black" stroke-width="2.22933"/>
<path d="M710.64 145.32C715.82 148.575 722.731 145.728 725.431 140.238C727.667 135.691 730.787 131.336 734.784 130.357C740.578 128.937 730.202 123.861 722.046 120.414C717.197 118.364 711.656 120.271 708.855 124.728L700.084 138.688L710.64 145.32Z" fill="#FAAD58" stroke="black" stroke-width="2.22933"/>
<path d="M710.06 132.14C715.835 130.12 717.918 122.942 715.309 117.408C713.148 112.825 711.689 107.669 713.415 103.934C715.918 98.5192 705.48 103.466 697.699 107.694C693.073 110.207 691.109 115.728 692.848 120.696L698.293 136.258L710.06 132.14Z" fill="#FAAD58" stroke="black" stroke-width="2.22933"/>
<path d="M699.395 124.377C701.415 118.602 697.102 112.498 691.148 111.088C686.218 109.92 681.277 107.846 679.433 104.168C676.761 98.8348 674.12 110.08 672.574 118.799C671.655 123.983 674.747 128.96 679.715 130.699L695.277 136.144L699.395 124.377Z" fill="#FAAD58" stroke="black" stroke-width="2.22933"/>
<path d="M686.674 127.875C683.419 122.695 675.958 122.261 671.143 126.036C667.156 129.163 662.454 131.733 658.429 130.881C652.593 129.646 659.738 138.721 665.591 145.366C669.071 149.317 674.89 150.003 679.347 147.203L693.307 138.431L686.674 127.875Z" fill="#FAAD58" stroke="black" stroke-width="2.22933"/>
<path fill-rule="evenodd" clip-rule="evenodd" d="M687.631 165.408C684.397 161.356 683.987 155.357 687.72 151.625L693.351 145.994L693.869 141.398L681.48 140.002C675.401 139.317 670.41 144.88 670.36 150.999C670.318 156.065 669.396 161.344 666.22 163.96C661.615 167.752 673.166 167.824 682.011 167.391C684.112 167.288 686.038 166.569 687.631 165.408Z" fill="#FAAD58"/>
<path d="M687.72 151.625L686.932 150.837V150.837L687.72 151.625ZM687.631 165.408L688.503 164.712L689.229 165.623L688.288 166.309L687.631 165.408ZM693.351 145.994L694.459 146.118L694.415 146.506L694.139 146.782L693.351 145.994ZM693.869 141.398L693.994 140.29L695.101 140.415L694.977 141.523L693.869 141.398ZM681.48 140.002L681.605 138.894L681.48 140.002ZM670.36 150.999L671.474 151.008V151.008L670.36 150.999ZM666.22 163.96L666.929 164.82L666.929 164.82L666.22 163.96ZM682.011 167.391L681.956 166.278L681.956 166.278L682.011 167.391ZM688.508 152.413C685.274 155.647 685.529 160.988 688.503 164.712L686.76 166.103C683.265 161.725 682.701 155.068 686.932 150.837L688.508 152.413ZM694.139 146.782L688.508 152.413L686.932 150.837L692.563 145.206L694.139 146.782ZM692.243 145.869L692.761 141.273L694.977 141.523L694.459 146.118L692.243 145.869ZM693.744 142.506L681.356 141.11L681.605 138.894L693.994 140.29L693.744 142.506ZM681.356 141.11C676.091 140.517 671.521 145.382 671.474 151.008L669.245 150.989C669.3 144.379 674.711 138.118 681.605 138.894L681.356 141.11ZM671.474 151.008C671.453 153.596 671.207 156.288 670.539 158.696C669.873 161.097 668.759 163.312 666.929 164.82L665.511 163.099C666.857 161.991 667.792 160.259 668.391 158.1C668.988 155.948 669.225 153.468 669.245 150.989L671.474 151.008ZM666.929 164.82C666.405 165.252 666.294 165.491 666.283 165.53C666.283 165.53 666.287 165.514 666.288 165.484C666.288 165.454 666.283 165.42 666.273 165.387C666.251 165.32 666.223 165.306 666.26 165.34C666.358 165.432 666.627 165.593 667.18 165.758C667.708 165.916 668.392 166.049 669.214 166.154C672.523 166.578 677.533 166.494 681.956 166.278L682.065 168.504C677.644 168.721 672.456 168.818 668.93 168.366C668.043 168.252 667.228 168.1 666.541 167.894C665.88 167.696 665.217 167.415 664.742 166.973C664.492 166.74 664.266 166.438 664.146 166.057C664.023 165.667 664.035 165.27 664.145 164.898C664.348 164.209 664.884 163.616 665.511 163.099L666.929 164.82ZM681.956 166.278C683.833 166.186 685.551 165.544 686.975 164.507L688.288 166.309C686.525 167.593 684.39 168.391 682.065 168.504L681.956 166.278Z" fill="black"/>
<path d="M696.667 128.186C702.823 128.186 707.814 133.176 707.814 139.332C707.814 145.488 702.823 150.479 696.667 150.479C690.511 150.479 685.521 145.488 685.521 139.332C685.521 133.176 690.511 128.186 696.667 128.186Z" fill="#FFD3C2" stroke="black" stroke-width="2.22933"/>
</g>
</g>
<g clip-path="url(#clip2)">
<path d="M557.334 278.667H278.667V-0.000152588H557.334V278.667Z" fill="#F2F2F2"/>
<g style="mix-blend-mode:overlay" opacity="0.5">
<path d="M557.334 278.667H278.667V-0.000152588H557.334V278.667Z" fill="#32B67A"/>
</g>
<g filter="url(#filter1_d)">
<path d="M407.879 174.175C406.492 180.623 411.406 186.707 418.001 186.707C424.597 186.707 429.511 180.623 428.123 174.175L422.048 145.947C421.638 144.04 419.952 142.678 418.001 142.678C416.05 142.678 414.364 144.04 413.954 145.947L407.879 174.175Z" fill="#EEE9DC" stroke="black" stroke-width="2.22933"/>
<path d="M435.479 171.127C439.057 176.668 446.834 177.495 451.498 172.831C456.161 168.168 455.334 160.391 449.794 156.813L425.538 141.148C423.899 140.089 421.744 140.319 420.364 141.698C418.985 143.077 418.756 145.233 419.814 146.872L435.479 171.127Z" fill="#EEE9DC" stroke="black" stroke-width="2.22933"/>
<path d="M452.842 149.455C459.29 150.843 465.374 145.929 465.374 139.333C465.374 132.738 459.29 127.824 452.842 129.212L424.614 135.286C422.707 135.696 421.345 137.383 421.345 139.333C421.345 141.284 422.707 142.971 424.614 143.381L452.842 149.455Z" fill="#EEE9DC" stroke="black" stroke-width="2.22933"/>
<path d="M449.794 121.854C455.335 118.277 456.162 110.5 451.498 105.836C446.835 101.172 439.058 102 435.48 107.54L419.815 131.796C418.756 133.434 418.986 135.59 420.365 136.969C421.744 138.349 423.9 138.578 425.539 137.519L449.794 121.854Z" fill="#EEE9DC" stroke="black" stroke-width="2.22933"/>
<path d="M428.121 104.492C429.508 98.0449 424.594 91.9604 417.999 91.9604C411.403 91.9604 406.489 98.0449 407.877 104.492L413.952 132.72C414.362 134.628 416.048 135.99 417.999 135.99C419.95 135.99 421.636 134.628 422.046 132.72L428.121 104.492Z" fill="#EEE9DC" stroke="black" stroke-width="2.22933"/>
<path d="M400.521 107.54C396.943 102 389.166 101.172 384.502 105.836C379.839 110.5 380.666 118.277 386.206 121.854L410.462 137.52C412.101 138.578 414.256 138.349 415.636 136.97C417.015 135.59 417.244 133.434 416.186 131.796L400.521 107.54Z" fill="#EEE9DC" stroke="black" stroke-width="2.22933"/>
<path d="M383.158 129.212C376.71 127.825 370.626 132.739 370.626 139.334C370.626 145.93 376.71 150.844 383.158 149.456L411.386 143.381C413.293 142.971 414.655 141.285 414.655 139.334C414.655 137.383 413.293 135.697 411.386 135.287L383.158 129.212Z" fill="#EEE9DC" stroke="black" stroke-width="2.22933"/>
<path d="M386.206 156.813C380.665 160.391 379.838 168.168 384.502 172.832C389.165 177.495 396.942 176.668 400.52 171.128L416.185 146.872C417.244 145.233 417.014 143.078 415.635 141.698C414.256 140.319 412.1 140.09 410.461 141.148L386.206 156.813Z" fill="#EEE9DC" stroke="black" stroke-width="2.22933"/>
<path d="M418 124.286C426.311 124.286 433.048 131.023 433.048 139.334C433.048 147.645 426.311 154.382 418 154.382C409.689 154.382 402.952 147.645 402.952 139.334C402.952 131.023 409.689 124.286 418 124.286Z" fill="#FFCC4C" stroke="black" stroke-width="2.22933"/>
</g>
</g>
<g clip-path="url(#clip3)">
<path d="M278.667 278.667H0L0 -0.000152588H278.667V278.667Z" fill="#0E38B1"/>
<g style="mix-blend-mode:overlay" opacity="0.5">
<path d="M278.667 278.667H0L0 -0.000152588H278.667V278.667Z" fill="#EF3E4A"/>
</g>
<g filter="url(#filter2_d)">
<path fill-rule="evenodd" clip-rule="evenodd" d="M139.139 146.652C144.07 150.77 147.208 156.965 147.208 163.893C147.208 170.82 144.07 177.015 139.139 181.134C134.208 177.015 131.07 170.82 131.07 163.893C131.07 156.965 134.208 150.77 139.139 146.652Z" fill="#FEDCCC" stroke="black" stroke-width="2.80658"/>
<path fill-rule="evenodd" clip-rule="evenodd" d="M143.683 145.402C150.093 145.836 156.273 149.003 160.345 154.608C164.417 160.213 165.519 167.069 163.951 173.299C157.54 172.866 151.361 169.698 147.289 164.094C143.217 158.489 142.114 151.633 143.683 145.402Z" fill="#FEDCCC" stroke="black" stroke-width="2.80658"/>
<path fill-rule="evenodd" clip-rule="evenodd" d="M146.625 141.722C152.065 138.305 158.927 137.235 165.516 139.376C172.104 141.517 177.026 146.415 179.419 152.378C173.978 155.795 167.117 156.865 160.529 154.724C153.94 152.583 149.018 147.685 146.625 141.722Z" fill="#FEDCCC" stroke="black" stroke-width="2.80658"/>
<path fill-rule="evenodd" clip-rule="evenodd" d="M146.841 137.015C149.234 131.053 154.156 126.154 160.745 124.013C167.333 121.873 174.195 122.943 179.635 126.36C177.242 132.322 172.32 137.221 165.732 139.361C159.143 141.502 152.282 140.432 146.841 137.015Z" fill="#FEDCCC" stroke="black" stroke-width="2.80658"/>
<path fill-rule="evenodd" clip-rule="evenodd" d="M144.25 133.079C142.681 126.848 143.784 119.992 147.856 114.387C151.928 108.783 158.108 105.616 164.518 105.182C166.087 111.413 164.984 118.269 160.912 123.873C156.84 129.478 150.66 132.645 144.25 133.079Z" fill="#FEDCCC" stroke="black" stroke-width="2.80658"/>
<path fill-rule="evenodd" clip-rule="evenodd" d="M139.839 131.417C134.908 127.299 131.77 121.104 131.77 114.176C131.77 107.249 134.908 101.054 139.839 96.9351C144.77 101.054 147.908 107.249 147.908 114.176C147.908 121.104 144.77 127.299 139.839 131.417Z" fill="#FEDCCC" stroke="black" stroke-width="2.80658"/>
<path fill-rule="evenodd" clip-rule="evenodd" d="M135.295 132.666C128.885 132.233 122.705 129.065 118.633 123.461C114.561 117.856 113.458 111 115.027 104.77C121.437 105.203 127.617 108.371 131.689 113.975C135.761 119.58 136.863 126.436 135.295 132.666Z" fill="#FEDCCC" stroke="black" stroke-width="2.80658"/>
<path fill-rule="evenodd" clip-rule="evenodd" d="M132.354 136.347C126.913 139.764 120.052 140.834 113.463 138.693C106.875 136.552 101.953 131.654 99.5593 125.691C105 122.274 111.861 121.204 118.45 123.345C125.039 125.486 129.961 130.384 132.354 136.347Z" fill="#FEDCCC" stroke="black" stroke-width="2.80658"/>
<path fill-rule="evenodd" clip-rule="evenodd" d="M132.137 141.054C129.743 147.016 124.821 151.915 118.232 154.055C111.644 156.196 104.783 155.126 99.3421 151.709C101.735 145.747 106.657 140.848 113.246 138.707C119.835 136.567 126.696 137.636 132.137 141.054Z" fill="#FEDCCC" stroke="black" stroke-width="2.80658"/>
<path fill-rule="evenodd" clip-rule="evenodd" d="M134.729 144.991C136.297 151.222 135.194 158.078 131.122 163.682C127.05 169.287 120.871 172.454 114.46 172.888C112.892 166.657 113.995 159.801 118.066 154.197C122.139 148.592 128.318 145.425 134.729 144.991Z" fill="#FEDCCC" stroke="black" stroke-width="2.80658"/>
<path fill-rule="evenodd" clip-rule="evenodd" d="M143 150.803C141.892 149.262 140.594 147.866 139.139 146.652C134.208 150.77 131.07 156.965 131.07 163.893C131.07 170.82 134.208 177.015 139.139 181.134C144.049 177.033 147.182 170.873 147.208 163.981C144.344 159.989 142.977 155.372 143 150.803Z" fill="#FEDCCC"/>
<path d="M139.139 146.652L138.24 145.574L139.139 144.823L140.039 145.574L139.139 146.652ZM143 150.803L144.139 149.984L144.405 150.354L144.403 150.81L143 150.803ZM139.139 181.134L140.039 182.211L139.139 182.962L138.24 182.211L139.139 181.134ZM147.208 163.981L148.348 163.163L148.613 163.532L148.611 163.986L147.208 163.981ZM140.039 145.574C141.583 146.865 142.963 148.347 144.139 149.984L141.86 151.622C140.821 150.177 139.604 148.868 138.24 147.729L140.039 145.574ZM129.667 163.893C129.667 156.532 133.003 149.948 138.24 145.574L140.039 147.729C135.413 151.592 132.474 157.398 132.474 163.893H129.667ZM138.24 182.211C133.003 177.837 129.667 171.254 129.667 163.893H132.474C132.474 170.387 135.413 176.193 140.039 180.057L138.24 182.211ZM148.611 163.986C148.583 171.31 145.253 177.856 140.039 182.211L138.24 180.057C142.846 176.21 145.78 170.436 145.805 163.976L148.611 163.986ZM146.068 164.799C143.026 160.558 141.573 155.651 141.597 150.796L144.403 150.81C144.382 155.093 145.663 159.419 148.348 163.163L146.068 164.799Z" fill="black"/>
<path d="M139.488 117.986C151.113 117.986 160.537 127.41 160.537 139.036C160.537 150.661 151.113 160.085 139.488 160.085C127.863 160.085 118.438 150.661 118.438 139.036C118.438 127.41 127.863 117.986 139.488 117.986Z" fill="#FF8FA4" stroke="black" stroke-width="2.80658"/>
</g>
</g>
<defs>
<filter id="filter0_d" x="653.306" y="95.8931" width="90.4768" height="89.0047" filterUnits="userSpaceOnUse" color-interpolation-filters="sRGB">
<feFlood flood-opacity="0" result="BackgroundImageFix"/>
<feColorMatrix in="SourceAlpha" type="matrix" values="0 0 0 0 0 0 0 0 0 0 0 0 0 0 0 0 0 0 127 0" result="hardAlpha"/>
<feOffset dx="4.45867" dy="4.45867"/>
<feColorMatrix type="matrix" values="0 0 0 0 0 0 0 0 0 0 0 0 0 0 0 0 0 0 0.95 0"/>
<feBlend mode="normal" in2="BackgroundImageFix" result="effect1_dropShadow"/>
<feBlend mode="normal" in="SourceGraphic" in2="effect1_dropShadow" result="shape"/>
</filter>
<filter id="filter1_d" x="369.512" y="90.8457" width="101.436" height="101.435" filterUnits="userSpaceOnUse" color-interpolation-filters="sRGB">
<feFlood flood-opacity="0" result="BackgroundImageFix"/>
<feColorMatrix in="SourceAlpha" type="matrix" values="0 0 0 0 0 0 0 0 0 0 0 0 0 0 0 0 0 0 127 0" result="hardAlpha"/>
<feOffset dx="4.45867" dy="4.45867"/>
<feColorMatrix type="matrix" values="0 0 0 0 0 0 0 0 0 0 0 0 0 0 0 0 0 0 1 0"/>
<feBlend mode="normal" in2="BackgroundImageFix" result="effect1_dropShadow"/>
<feBlend mode="normal" in="SourceGraphic" in2="effect1_dropShadow" result="shape"/>
</filter>
<filter id="filter2_d" x="96.8486" y="95.1064" width="90.8932" height="93.469" filterUnits="userSpaceOnUse" color-interpolation-filters="sRGB">
<feFlood flood-opacity="0" result="BackgroundImageFix"/>
<feColorMatrix in="SourceAlpha" type="matrix" values="0 0 0 0 0 0 0 0 0 0 0 0 0 0 0 0 0 0 127 0" result="hardAlpha"/>
<feOffset dx="5.61315" dy="5.61315"/>
<feColorMatrix type="matrix" values="0 0 0 0 0 0 0 0 0 0 0 0 0 0 0 0 0 0 0.95 0"/>
<feBlend mode="normal" in2="BackgroundImageFix" result="effect1_dropShadow"/>
<feBlend mode="normal" in="SourceGraphic" in2="effect1_dropShadow" result="shape"/>
</filter>
<clipPath id="clip0">
<rect width="278.667" height="278.667" fill="white" transform="matrix(1 0 0 -1 557.333 278.667)"/>
</clipPath>
<clipPath id="clip1">
<rect width="86.0181" height="84.5461" fill="white" transform="matrix(1 0 0 -1 653.306 180.439)"/>
</clipPath>
<clipPath id="clip2">
<rect width="278.667" height="278.667" fill="white" transform="matrix(1 0 0 -1 278.667 278.667)"/>
</clipPath>
<clipPath id="clip3">
<rect width="278.667" height="278.667" fill="white" transform="matrix(1 0 0 -1 0 278.667)"/>
</clipPath>
</defs>
</svg>
