<svg width="345" height="72" viewBox="0 0 345 72" fill="none" xmlns="http://www.w3.org/2000/svg">
<g filter="url(#filter0_d)">
<path d="M125.5 29.5538C132.289 29.5538 137.793 23.6095 137.793 16.2769C137.793 8.94426 132.289 3 125.5 3C118.71 3 113.207 8.94426 113.207 16.2769C113.207 23.6095 118.71 29.5538 125.5 29.5538Z" fill="#63B5E3" stroke="black" stroke-width="1.96694"/>
<path d="M127.807 30.6644C132.04 35.9726 140.119 36.5696 145.852 31.9978C151.585 27.426 152.8 19.4167 148.567 14.1084C144.334 8.80023 136.255 8.20326 130.522 12.7751C124.789 17.3469 123.574 25.3562 127.807 30.6644Z" fill="#63B5E3" stroke="black" stroke-width="1.96694"/>
<path d="M128.376 33.1604C126.866 39.7796 131.436 46.4683 138.585 48.1C145.734 49.7316 152.754 45.6884 154.264 39.0692C155.775 32.4499 151.205 25.7613 144.056 24.1296C136.907 22.4979 129.887 26.5412 128.376 33.1604Z" fill="#63B5E3" stroke="black" stroke-width="1.96694"/>
<path d="M126.78 35.1627C120.663 38.1086 118.283 45.8522 121.465 52.4587C124.646 59.0652 132.184 62.0327 138.301 59.0868C144.418 56.141 146.798 48.3973 143.617 41.7909C140.435 35.1844 132.897 32.2169 126.78 35.1627Z" fill="#63B5E3" stroke="black" stroke-width="1.96694"/>
<path d="M124.22 35.1619C118.103 32.2161 110.565 35.1836 107.383 41.7901C104.202 48.3965 106.581 56.1402 112.699 59.086C118.816 62.0319 126.354 59.0643 129.535 52.4579C132.717 45.8514 130.337 38.1077 124.22 35.1619Z" fill="#63B5E3" stroke="black" stroke-width="1.96694"/>
<path d="M122.623 33.1607C121.113 26.5415 114.093 22.4983 106.944 24.1299C99.7952 25.7616 95.2247 32.4503 96.7355 39.0695C98.2463 45.6887 105.266 49.732 112.415 48.1003C119.564 46.4686 124.134 39.78 122.623 33.1607Z" fill="#63B5E3" stroke="black" stroke-width="1.96694"/>
<path d="M123.193 30.6653C127.426 25.3571 126.211 17.3478 120.478 12.776C114.745 8.20414 106.666 8.80111 102.433 14.1093C98.1994 19.4175 99.4152 27.4269 105.148 31.9987C110.881 36.5705 118.96 35.9735 123.193 30.6653Z" fill="#63B5E3" stroke="black" stroke-width="1.96694"/>
<path d="M125.5 49.2232C134.734 49.2232 142.219 41.7379 142.219 32.5042C142.219 23.2705 134.734 15.7852 125.5 15.7852C116.266 15.7852 108.781 23.2705 108.781 32.5042C108.781 41.7379 116.266 49.2232 125.5 49.2232Z" fill="#FFCC4C" stroke="black" stroke-width="1.96694"/>
</g>
<g filter="url(#filter1_d)">
<path fill-rule="evenodd" clip-rule="evenodd" d="M28.1488 34.6009C25.0255 30.8615 20.3279 28.482 15.0742 28.482C9.82101 28.482 5.12333 30.8615 2.00006 34.6009C5.12333 38.3403 9.82101 40.7197 15.0742 40.7197C20.3279 40.7197 25.0255 38.3403 28.1488 34.6009Z" fill="#FEDCCC" stroke="black" stroke-width="2.12829"/>
<path fill-rule="evenodd" clip-rule="evenodd" d="M29.0955 31.1559C28.7667 26.2949 26.3648 21.6086 22.1145 18.5206C17.8646 15.4329 12.6655 14.5966 7.94074 15.7861C8.26955 20.6471 10.6715 25.3334 14.9214 28.4211C19.1717 31.5091 24.3708 32.3454 29.0955 31.1559Z" fill="#FEDCCC" stroke="black" stroke-width="2.12829"/>
<path fill-rule="evenodd" clip-rule="evenodd" d="M31.8867 28.9234C34.4779 24.7975 35.2892 19.5944 33.6657 14.5979C32.0424 9.60183 28.3278 5.86935 23.8062 4.05448C21.215 8.18044 20.4037 13.3835 22.027 18.3795C23.6505 23.3761 27.3651 27.1086 31.8867 28.9234Z" fill="#FEDCCC" stroke="black" stroke-width="2.12829"/>
<path fill-rule="evenodd" clip-rule="evenodd" d="M35.4562 28.7598C39.9778 26.9449 43.6924 23.2124 45.3159 18.2159C46.9392 13.2198 46.1279 8.01678 43.5367 3.89083C39.0151 5.70569 35.3005 9.43817 33.6772 14.4342C32.0537 19.4308 32.865 24.6338 35.4562 28.7598Z" fill="#FEDCCC" stroke="black" stroke-width="2.12829"/>
<path fill-rule="evenodd" clip-rule="evenodd" d="M38.4406 30.7244C43.1654 31.9138 48.3645 31.0776 52.6148 27.9896C56.8647 24.9018 59.2666 20.2156 59.5954 15.3545C54.8707 14.1651 49.6716 15.0013 45.4217 18.0891C41.1713 21.1771 38.7694 25.8633 38.4406 30.7244Z" fill="#FEDCCC" stroke="black" stroke-width="2.12829"/>
<path fill-rule="evenodd" clip-rule="evenodd" d="M39.7001 34.069C42.8234 37.8085 47.5211 40.1879 52.7748 40.1879C58.0279 40.1879 62.7256 37.8085 65.8489 34.069C62.7256 30.3296 58.0279 27.9502 52.7748 27.9502C47.5211 27.9502 42.8234 30.3296 39.7001 34.069Z" fill="#FEDCCC" stroke="black" stroke-width="2.12829"/>
<path fill-rule="evenodd" clip-rule="evenodd" d="M38.7536 37.514C39.0824 42.3751 41.4843 47.0613 45.7346 50.1493C49.9845 53.2371 55.1836 54.0733 59.9083 52.8838C59.5795 48.0228 57.1776 43.3366 52.9277 40.2488C48.6774 37.1608 43.4783 36.3246 38.7536 37.514Z" fill="#FEDCCC" stroke="black" stroke-width="2.12829"/>
<path fill-rule="evenodd" clip-rule="evenodd" d="M35.9621 39.7455C33.3708 43.8715 32.5595 49.0745 34.183 54.0711C35.8063 59.0671 39.5209 62.7996 44.0425 64.6145C46.6337 60.4885 47.445 55.2855 45.8217 50.2894C44.1982 45.2929 40.4836 41.5604 35.9621 39.7455Z" fill="#FEDCCC" stroke="black" stroke-width="2.12829"/>
<path fill-rule="evenodd" clip-rule="evenodd" d="M32.3927 39.9101C27.8712 41.725 24.1565 45.4575 22.533 50.454C20.9097 55.4501 21.721 60.6531 24.3123 64.7791C28.8338 62.9642 32.5485 59.2318 34.1718 54.2357C35.7953 49.2391 34.9839 44.0361 32.3927 39.9101Z" fill="#FEDCCC" stroke="black" stroke-width="2.12829"/>
<path fill-rule="evenodd" clip-rule="evenodd" d="M29.4083 37.9445C24.6836 36.7551 19.4845 37.5913 15.2341 40.6794C10.9842 43.7671 8.58234 48.4533 8.25353 53.3144C12.9783 54.5038 18.1774 53.6676 22.4273 50.5799C26.6776 47.4918 29.0795 42.8056 29.4083 37.9445Z" fill="#FEDCCC" stroke="black" stroke-width="2.12829"/>
<path fill-rule="evenodd" clip-rule="evenodd" d="M25.0009 31.6735C26.1697 32.5136 27.2277 33.4981 28.1488 34.6009C25.0255 38.3403 20.3279 40.7197 15.0742 40.7197C9.82101 40.7197 5.12333 38.3403 2.00006 34.6009C5.10994 30.8775 9.78074 28.5025 15.0066 28.4822C18.0342 30.654 21.5356 31.6908 25.0009 31.6735Z" fill="#FEDCCC"/>
<path d="M28.1488 34.6009L28.9656 35.283L29.5353 34.6009L28.9656 33.9187L28.1488 34.6009ZM25.0009 31.6735L25.622 30.8094L25.3413 30.6077L24.9956 30.6094L25.0009 31.6735ZM2.00006 34.6009L1.18332 33.9187L0.613559 34.6009L1.18332 35.283L2.00006 34.6009ZM15.0066 28.4822L15.6269 27.6175L15.347 27.4167L15.0025 27.418L15.0066 28.4822ZM28.9656 33.9187C27.9873 32.7475 26.8636 31.7018 25.622 30.8094L24.3799 32.5376C25.4759 33.3254 26.4682 34.2488 27.3321 35.283L28.9656 33.9187ZM15.0742 41.7839C20.6566 41.7839 25.6488 39.2541 28.9656 35.283L27.3321 33.9187C24.4023 37.4264 19.9992 39.6556 15.0742 39.6556V41.7839ZM1.18332 35.283C4.50009 39.2541 9.4923 41.7839 15.0742 41.7839V39.6556C10.1497 39.6556 5.74658 37.4265 2.8168 33.9187L1.18332 35.283ZM15.0025 27.418C9.44947 27.4396 4.48585 29.9647 1.18332 33.9187L2.8168 35.283C5.73402 31.7903 10.112 29.5653 15.0107 29.5463L15.0025 27.418ZM14.3863 29.3468C17.6023 31.6538 21.3241 32.756 25.0062 32.7377L24.9956 30.6094C21.7471 30.6256 18.4661 29.6542 15.6269 27.6175L14.3863 29.3468Z" fill="black"/>
<path d="M49.8866 34.3347C49.8866 25.519 42.7401 18.3725 33.9244 18.3725C25.1087 18.3725 17.9622 25.519 17.9622 34.3347C17.9622 43.1504 25.1087 50.2969 33.9244 50.2969C42.7401 50.2969 49.8866 43.1504 49.8866 34.3347Z" fill="#FF8FA4" stroke="black" stroke-width="2.12829"/>
</g>
<g clip-path="url(#clip0)" filter="url(#filter2_d)">
<path d="M208.193 41.5362C204.711 45.0181 198.778 44.0218 195.676 40.1971C193.107 37.0297 189.878 34.1708 186.567 34.1184C181.766 34.0425 188.999 28.2006 194.782 24.0346C198.22 21.5579 202.909 22.0617 205.905 25.0574L215.288 34.4409L208.193 41.5362Z" fill="#FAAD58" stroke="black" stroke-width="1.79435"/>
<path d="M206.287 31.0908C201.394 30.5395 198.474 25.2801 199.53 20.4702C200.405 16.4868 200.627 12.1798 198.603 9.5581C195.669 5.75744 204.746 7.76969 211.609 9.69369C215.689 10.8374 218.219 14.8176 217.745 19.0278L216.259 32.2143L206.287 31.0908Z" fill="#FAAD58" stroke="black" stroke-width="1.79435"/>
<path d="M213.266 23.0874C210.646 18.918 212.938 13.3559 217.357 11.1828C221.017 9.38294 224.522 6.87113 225.31 3.65437C226.452 -1.00917 230.538 7.342 233.313 13.9072C234.963 17.8101 233.428 22.2695 229.841 24.5239L218.605 31.5837L213.266 23.0874Z" fill="#FAAD58" stroke="black" stroke-width="1.79435"/>
<path d="M223.874 23.5542C225.5 18.9063 231.278 17.2299 235.732 19.3299C239.421 21.069 243.571 22.2438 246.577 20.8543C250.935 18.8396 246.953 27.2411 243.551 33.5038C241.528 37.2268 237.084 38.8075 233.085 37.4084L220.56 33.0253L223.874 23.5542Z" fill="#FAAD58" stroke="black" stroke-width="1.79435"/>
<path d="M230.123 32.1382C234.771 30.5118 239.684 33.9835 240.819 38.7753C241.759 42.7437 243.428 46.7204 246.389 48.2045C250.681 50.3558 241.63 52.4811 234.612 53.7253C230.44 54.4651 226.434 51.9767 225.034 47.9777L220.652 35.4523L230.123 32.1382Z" fill="#FAAD58" stroke="black" stroke-width="1.79435"/>
<path d="M227.307 42.3755C231.477 44.9953 231.826 51.0009 228.787 54.8761C226.271 58.0856 224.202 61.8697 224.888 65.1098C225.882 69.8071 218.577 64.0558 213.229 59.3447C210.049 56.544 209.497 51.8604 211.751 48.2728L218.811 37.037L227.307 42.3755Z" fill="#FAAD58" stroke="black" stroke-width="1.79435"/>
<path fill-rule="evenodd" clip-rule="evenodd" d="M197.1 41.6056C200.36 44.2089 205.189 44.5383 208.193 41.5342L212.724 37.0026L216.424 36.5858L217.548 46.557C218.099 51.4502 213.621 55.4673 208.697 55.5078C204.619 55.5415 200.37 56.2835 198.265 58.8398C195.212 62.546 195.154 53.2489 195.503 46.13C195.586 44.4388 196.165 42.8882 197.1 41.6056Z" fill="#FAAD58"/>
<path d="M208.193 41.5342L208.827 42.1686L208.193 41.5342ZM197.1 41.6056L197.659 40.9045L196.927 40.3195L196.375 41.0773L197.1 41.6056ZM212.724 37.0026L212.624 36.111L212.312 36.1462L212.09 36.3682L212.724 37.0026ZM216.424 36.5858L217.316 36.4853L217.215 35.5938L216.324 35.6943L216.424 36.5858ZM217.548 46.557L218.439 46.4565L217.548 46.557ZM208.697 55.5078L208.689 54.6107H208.689L208.697 55.5078ZM198.265 58.8398L197.572 58.2694L197.572 58.2694L198.265 58.8398ZM195.503 46.13L196.399 46.1739L196.399 46.1739L195.503 46.13ZM207.558 40.8998C204.956 43.5026 200.657 43.2977 197.659 40.9045L196.54 42.3067C200.064 45.1201 205.422 45.5741 208.827 42.1686L207.558 40.8998ZM212.09 36.3682L207.558 40.8998L208.827 42.1686L213.359 37.637L212.09 36.3682ZM212.825 37.8941L216.525 37.4773L216.324 35.6943L212.624 36.111L212.825 37.8941ZM215.533 36.6862L216.656 46.6574L218.439 46.4565L217.316 36.4853L215.533 36.6862ZM216.656 46.6574C217.134 50.8949 213.218 54.5734 208.689 54.6107L208.704 56.405C214.024 56.3611 219.064 52.0055 218.439 46.4565L216.656 46.6574ZM208.689 54.6107C206.607 54.6279 204.439 54.8255 202.501 55.3634C200.569 55.8995 198.786 56.796 197.572 58.2694L198.957 59.4102C199.849 58.3273 201.243 57.5747 202.981 57.0924C204.713 56.6118 206.709 56.4215 208.704 56.405L208.689 54.6107ZM197.572 58.2694C197.225 58.6913 197.032 58.7801 197.001 58.7893C197.001 58.7894 197.014 58.7856 197.038 58.7854C197.062 58.7853 197.09 58.7891 197.116 58.7974C197.17 58.8145 197.181 58.837 197.153 58.8076C197.08 58.7285 196.95 58.5125 196.817 58.0669C196.69 57.6422 196.583 57.0917 196.498 56.4303C196.157 53.7666 196.225 49.7343 196.399 46.1739L194.607 46.0861C194.432 49.6446 194.355 53.8203 194.718 56.6583C194.81 57.3724 194.932 58.0282 195.098 58.5813C195.257 59.1135 195.484 59.6469 195.839 60.0295C196.027 60.2309 196.27 60.4123 196.577 60.5089C196.891 60.6078 197.21 60.5986 197.509 60.5102C198.064 60.3462 198.541 59.9149 198.957 59.4102L197.572 58.2694ZM196.399 46.1739C196.473 44.6632 196.99 43.28 197.825 42.134L196.375 41.0773C195.34 42.4965 194.698 44.2145 194.607 46.0861L196.399 46.1739Z" fill="black"/>
<path d="M227.057 34.3349C227.057 29.38 223.04 25.3632 218.085 25.3632C213.131 25.3632 209.114 29.38 209.114 34.3349C209.114 39.2899 213.131 43.3066 218.085 43.3066C223.04 43.3066 227.057 39.2899 227.057 34.3349Z" fill="#FFD3C2" stroke="black" stroke-width="1.79435"/>
</g>
<g filter="url(#filter3_d)">
<path d="M304.452 11.8894C303.578 7.83047 306.672 4 310.824 4C314.976 4 318.07 7.83047 317.196 11.8894L313.372 29.6607C313.114 30.8614 312.052 31.7189 310.824 31.7189C309.596 31.7189 308.534 30.8614 308.276 29.6607L304.452 11.8894Z" fill="white" stroke="black" stroke-width="1.40349"/>
<path d="M321.829 13.8076C324.081 10.3198 328.977 9.79874 331.913 12.7348C334.849 15.6709 334.328 20.567 330.84 22.8192L315.57 32.6814C314.538 33.3478 313.181 33.2034 312.313 32.335C311.444 31.4667 311.3 30.1095 311.966 29.0779L321.829 13.8076Z" fill="white" stroke="black" stroke-width="1.40349"/>
<path d="M332.759 27.4512C336.818 26.5775 340.648 29.6711 340.648 33.8234C340.648 37.9756 336.818 41.0692 332.759 40.1955L314.988 36.3714C313.787 36.1131 312.929 35.0514 312.929 33.8234C312.929 32.5953 313.787 31.5336 314.988 31.2753L332.759 27.4512Z" fill="white" stroke="black" stroke-width="1.40349"/>
<path d="M330.84 44.8281C334.328 47.0804 334.849 51.9765 331.913 54.9125C328.977 57.8486 324.081 57.3276 321.829 53.8397L311.966 38.5694C311.3 37.5378 311.444 36.1807 312.313 35.3123C313.181 34.444 314.538 34.2996 315.57 34.966L330.84 44.8281Z" fill="white" stroke="black" stroke-width="1.40349"/>
<path d="M317.196 55.7581C318.07 59.817 314.976 63.6475 310.824 63.6475C306.672 63.6475 303.578 59.817 304.452 55.7581L308.276 37.9868C308.534 36.7861 309.596 35.9286 310.824 35.9286C312.052 35.9286 313.114 36.7861 313.372 37.9868L317.196 55.7581Z" fill="white" stroke="black" stroke-width="1.40349"/>
<path d="M299.82 53.8399C297.567 57.3277 292.671 57.8487 289.735 54.9127C286.799 51.9766 287.32 47.0805 290.808 44.8282L306.078 34.9661C307.11 34.2997 308.467 34.4441 309.336 35.3124C310.204 36.1808 310.348 37.5379 309.682 38.5695L299.82 53.8399Z" fill="white" stroke="black" stroke-width="1.40349"/>
<path d="M288.889 40.1963C284.83 41.07 281 37.9763 281 33.8241C281 29.6719 284.83 26.5782 288.889 27.4519L306.661 31.2761C307.861 31.5343 308.719 32.5961 308.719 33.8241C308.719 35.0522 307.861 36.1139 306.661 36.3721L288.889 40.1963Z" fill="white" stroke="black" stroke-width="1.40349"/>
<path d="M290.808 22.8194C287.32 20.5671 286.799 15.671 289.735 12.7349C292.671 9.79886 297.567 10.3199 299.82 13.8077L309.682 29.078C310.348 30.1097 310.204 31.4668 309.335 32.3351C308.467 33.2035 307.11 33.3479 306.078 32.6815L290.808 22.8194Z" fill="white" stroke="black" stroke-width="1.40349"/>
<path d="M310.824 43.2977C316.056 43.2977 320.298 39.0562 320.298 33.8241C320.298 28.592 316.056 24.3506 310.824 24.3506C305.592 24.3506 301.351 28.592 301.351 33.8241C301.351 39.0562 305.592 43.2977 310.824 43.2977Z" fill="#FFCC4C" stroke="black" stroke-width="1.40349"/>
</g>
<defs>
<filter id="filter0_d" x="95.4618" y="2.0166" width="62.8832" height="62.0023" filterUnits="userSpaceOnUse" color-interpolation-filters="sRGB">
<feFlood flood-opacity="0" result="BackgroundImageFix"/>
<feColorMatrix in="SourceAlpha" type="matrix" values="0 0 0 0 0 0 0 0 0 0 0 0 0 0 0 0 0 0 127 0" result="hardAlpha"/>
<feOffset dx="2.80698" dy="2.80698"/>
<feColorMatrix type="matrix" values="0 0 0 0 0 0 0 0 0 0 0 0 0 0 0 0 0 0 1 0"/>
<feBlend mode="normal" in2="BackgroundImageFix" result="effect1_dropShadow"/>
<feBlend mode="normal" in="SourceGraphic" in2="effect1_dropShadow" result="shape"/>
</filter>
<filter id="filter1_d" x="0.613586" y="2" width="70.8784" height="68.9265" filterUnits="userSpaceOnUse" color-interpolation-filters="sRGB">
<feFlood flood-opacity="0" result="BackgroundImageFix"/>
<feColorMatrix in="SourceAlpha" type="matrix" values="0 0 0 0 0 0 0 0 0 0 0 0 0 0 0 0 0 0 127 0" result="hardAlpha"/>
<feOffset dx="4.25659" dy="4.25659"/>
<feColorMatrix type="matrix" values="0 0 0 0 0 0 0 0 0 0 0 0 0 0 0 0 0 0 0.95 0"/>
<feBlend mode="normal" in2="BackgroundImageFix" result="effect1_dropShadow"/>
<feBlend mode="normal" in="SourceGraphic" in2="effect1_dropShadow" result="shape"/>
</filter>
<filter id="filter2_d" x="185" y="0" width="71.6381" height="72.8229" filterUnits="userSpaceOnUse" color-interpolation-filters="sRGB">
<feFlood flood-opacity="0" result="BackgroundImageFix"/>
<feColorMatrix in="SourceAlpha" type="matrix" values="0 0 0 0 0 0 0 0 0 0 0 0 0 0 0 0 0 0 127 0" result="hardAlpha"/>
<feOffset dx="3.58869" dy="3.58869"/>
<feColorMatrix type="matrix" values="0 0 0 0 0 0 0 0 0 0 0 0 0 0 0 0 0 0 0.95 0"/>
<feBlend mode="normal" in2="BackgroundImageFix" result="effect1_dropShadow"/>
<feBlend mode="normal" in="SourceGraphic" in2="effect1_dropShadow" result="shape"/>
</filter>
<filter id="filter3_d" x="280.298" y="3.29785" width="63.8587" height="63.8581" filterUnits="userSpaceOnUse" color-interpolation-filters="sRGB">
<feFlood flood-opacity="0" result="BackgroundImageFix"/>
<feColorMatrix in="SourceAlpha" type="matrix" values="0 0 0 0 0 0 0 0 0 0 0 0 0 0 0 0 0 0 127 0" result="hardAlpha"/>
<feOffset dx="2.80698" dy="2.80698"/>
<feColorMatrix type="matrix" values="0 0 0 0 0 0 0 0 0 0 0 0 0 0 0 0 0 0 1 0"/>
<feBlend mode="normal" in2="BackgroundImageFix" result="effect1_dropShadow"/>
<feBlend mode="normal" in="SourceGraphic" in2="effect1_dropShadow" result="shape"/>
</filter>
<clipPath id="clip0">
<rect width="69.2342" height="68.0494" fill="white" transform="translate(185 69.2344) rotate(-90)"/>
</clipPath>
</defs>
</svg>
