<svg width="512" height="512" viewBox="0 0 512 512" fill="none" xmlns="http://www.w3.org/2000/svg">
<rect width="512" height="512" rx="71.5829" fill="#EFF0F2"/>
<path d="M82.0687 224.112C78.432 224.112 75.4128 225.45 73.0112 228.126C70.6095 230.733 68.9284 233.959 67.9678 237.801C67.0757 241.644 66.6297 246.035 66.6297 250.976C66.6297 254.475 66.9385 257.94 67.5561 261.371C68.2422 264.734 69.2372 268.062 70.5409 271.355C71.9133 274.58 73.8689 277.222 76.4077 279.281C78.9466 281.27 81.8972 282.265 85.2594 282.265C90.4058 282.265 94.2483 279.658 96.7872 274.443C99.3947 269.228 100.698 262.812 100.698 255.196C100.698 251.422 100.39 247.854 99.7721 244.491C99.2231 241.06 98.2968 237.767 96.9931 234.61C95.6893 231.385 93.768 228.846 91.2292 226.994C88.6903 225.073 85.6368 224.112 82.0687 224.112ZM60.2483 277.84C53.7982 271.046 50.5732 262.847 50.5732 253.24C50.5732 243.634 53.7982 235.434 60.2483 228.641C66.7669 221.779 74.5551 218.348 83.6126 218.348C92.6701 218.348 100.458 221.779 106.977 228.641C113.496 235.434 116.755 243.634 116.755 253.24C116.755 262.847 113.496 271.046 106.977 277.84C100.458 284.633 92.6701 288.029 83.6126 288.029C74.5551 288.029 66.7669 284.633 60.2483 277.84ZM287.819 268.473C287.819 269.434 287.27 272.11 286.172 276.501C285.143 280.893 284.285 283.226 283.599 283.5C275.914 286.314 268.194 287.72 260.44 287.72C251.383 287.72 243.629 284.393 237.179 277.737C230.729 271.012 227.504 263.052 227.504 253.858C227.504 244.114 230.729 235.777 237.179 228.846C243.698 221.847 251.795 218.348 261.47 218.348C268.949 218.348 276.806 219.343 285.04 221.333C285.383 221.401 285.795 223.7 286.275 228.229C286.824 232.758 287.098 235.537 287.098 236.566C287.098 237.595 286.172 238.11 284.319 238.11C284.251 238.11 283.702 238.007 282.673 237.801C282.33 236.566 281.746 235.262 280.923 233.89C280.168 232.518 279.002 231.042 277.423 229.464C275.914 227.886 273.787 226.616 271.042 225.656C268.366 224.626 265.347 224.112 261.984 224.112C249.702 224.112 243.56 233.307 243.56 251.696C243.56 260.273 245.447 267.513 249.221 273.414C252.995 279.246 258.348 282.162 265.278 282.162C270.356 282.162 274.747 280.31 278.453 276.604C279.345 275.712 280.134 274.512 280.82 273.002C281.575 271.424 282.124 270.12 282.467 269.091C282.878 267.993 283.119 267.444 283.187 267.444C286.001 267.444 287.544 267.787 287.819 268.473ZM458.883 268.473C458.883 269.434 458.334 272.11 457.236 276.501C456.207 280.893 455.349 283.226 454.663 283.5C446.978 286.314 439.258 287.72 431.504 287.72C422.447 287.72 414.693 284.393 408.243 277.737C401.793 271.012 398.568 263.052 398.568 253.858C398.568 244.114 401.793 235.777 408.243 228.846C414.762 221.847 422.859 218.348 432.534 218.348C440.013 218.348 447.87 219.343 456.104 221.333C456.447 221.401 456.859 223.7 457.339 228.229C457.888 232.758 458.162 235.537 458.162 236.566C458.162 237.595 457.236 238.11 455.383 238.11C455.315 238.11 454.766 238.007 453.737 237.801C453.394 236.566 452.81 235.262 451.987 233.89C451.232 232.518 450.066 231.042 448.487 229.464C446.978 227.886 444.851 226.616 442.106 225.656C439.43 224.626 436.411 224.112 433.048 224.112C420.766 224.112 414.624 233.307 414.624 251.696C414.624 260.273 416.511 267.513 420.285 273.414C424.059 279.246 429.412 282.162 436.342 282.162C441.42 282.162 445.811 280.31 449.517 276.604C450.409 275.712 451.198 274.512 451.884 273.002C452.639 271.424 453.188 270.12 453.531 269.091C453.942 267.993 454.183 267.444 454.251 267.444C457.065 267.444 458.608 267.787 458.883 268.473Z" fill="#0C0C0C"/>
</svg>
