<svg width="192" height="192" viewBox="0 0 192 192" fill="none" xmlns="http://www.w3.org/2000/svg">
<rect width="192" height="192" rx="26.8436" fill="#EFF0F2"/>
<path d="M37.5307 80.7152C36.2999 80.7152 35.278 81.168 34.4652 82.0738C33.6523 82.9563 33.0833 84.0478 32.7582 85.3484C32.4563 86.6489 32.3053 88.1352 32.3053 89.8074C32.3053 90.9918 32.4098 92.1646 32.6189 93.3258C32.8511 94.4638 33.1878 95.5902 33.6291 96.7049C34.0936 97.7964 34.7555 98.6906 35.6148 99.3873C36.474 100.061 37.4727 100.398 38.6107 100.398C40.3525 100.398 41.653 99.515 42.5123 97.75C43.3948 95.985 43.8361 93.8135 43.8361 91.2357C43.8361 89.9583 43.7316 88.7507 43.5225 87.6127C43.3367 86.4515 43.0232 85.3367 42.582 84.2684C42.1407 83.1769 41.4904 82.3176 40.6311 81.6906C39.7719 81.0403 38.7384 80.7152 37.5307 80.7152ZM30.1455 98.8996C27.9624 96.6004 26.8709 93.8251 26.8709 90.5738C26.8709 87.3224 27.9624 84.5471 30.1455 82.248C32.3518 79.9255 34.9877 78.7643 38.0533 78.7643C41.1189 78.7643 43.7548 79.9255 45.9611 82.248C48.1673 84.5471 49.2705 87.3224 49.2705 90.5738C49.2705 93.8251 48.1673 96.6004 45.9611 98.8996C43.7548 101.199 41.1189 102.348 38.0533 102.348C34.9877 102.348 32.3518 101.199 30.1455 98.8996ZM107.168 95.7295C107.168 96.0546 106.982 96.9604 106.611 98.4467C106.262 99.9331 105.972 100.723 105.74 100.816C103.139 101.768 100.526 102.244 97.9016 102.244C94.8361 102.244 92.2117 101.117 90.0287 98.8648C87.8456 96.5888 86.7541 93.8948 86.7541 90.7828C86.7541 87.485 87.8456 84.6633 90.0287 82.3176C92.235 79.9488 94.9754 78.7643 98.25 78.7643C100.781 78.7643 103.441 79.1011 106.227 79.7746C106.344 79.7978 106.483 80.5758 106.645 82.1086C106.831 83.6414 106.924 84.582 106.924 84.9303C106.924 85.2787 106.611 85.4529 105.984 85.4529C105.96 85.4529 105.775 85.418 105.426 85.3484C105.31 84.9303 105.113 84.4891 104.834 84.0246C104.579 83.5601 104.184 83.0608 103.65 82.5266C103.139 81.9925 102.419 81.5628 101.49 81.2377C100.584 80.8893 99.5622 80.7152 98.4242 80.7152C94.2671 80.7152 92.1885 83.8272 92.1885 90.0512C92.1885 92.9542 92.8272 95.4044 94.1045 97.4016C95.3818 99.3757 97.1933 100.363 99.5389 100.363C101.258 100.363 102.744 99.7357 103.998 98.4816C104.3 98.1796 104.567 97.7732 104.799 97.2623C105.055 96.7281 105.24 96.2869 105.357 95.9385C105.496 95.5669 105.577 95.3811 105.6 95.3811C106.553 95.3811 107.075 95.4973 107.168 95.7295ZM165.066 95.7295C165.066 96.0546 164.88 96.9604 164.508 98.4467C164.16 99.9331 163.87 100.723 163.637 100.816C161.036 101.768 158.423 102.244 155.799 102.244C152.734 102.244 150.109 101.117 147.926 98.8648C145.743 96.5888 144.652 93.8948 144.652 90.7828C144.652 87.485 145.743 84.6633 147.926 82.3176C150.133 79.9488 152.873 78.7643 156.148 78.7643C158.679 78.7643 161.338 79.1011 164.125 79.7746C164.241 79.7978 164.38 80.5758 164.543 82.1086C164.729 83.6414 164.822 84.582 164.822 84.9303C164.822 85.2787 164.508 85.4529 163.881 85.4529C163.858 85.4529 163.672 85.418 163.324 85.3484C163.208 84.9303 163.01 84.4891 162.732 84.0246C162.476 83.5601 162.081 83.0608 161.547 82.5266C161.036 81.9925 160.316 81.5628 159.387 81.2377C158.482 80.8893 157.46 80.7152 156.322 80.7152C152.165 80.7152 150.086 83.8272 150.086 90.0512C150.086 92.9542 150.725 95.4044 152.002 97.4016C153.279 99.3757 155.091 100.363 157.436 100.363C159.155 100.363 160.641 99.7357 161.895 98.4816C162.197 98.1796 162.464 97.7732 162.697 97.2623C162.952 96.7281 163.138 96.2869 163.254 95.9385C163.393 95.5669 163.475 95.3811 163.498 95.3811C164.45 95.3811 164.973 95.4973 165.066 95.7295Z" fill="#0C0C0C"/>
</svg>
